<svg class="border shadow-md" viewBox="0 0 924.5866666666667 520.08" style="width: 924.587px; height: 520.08px;" xmlns="http://www.w3.org/2000/svg" preserveAspectRatio="none"><rect class="bg" id="bg" x="0" y="0" width="924.5866666666667" height="520.08" fill="#792d80"/><g transform="translate(-325.05 195.03000000000003) scale(1)"><path d="M527,443Q461,561,336,541.5Q211,522,149,423.5Q87,325,143,216Q199,107,338,84Q477,61,535,193Q593,325,527,443Z" fill="#4f46e5" stroke="none" stroke-width="10"/></g><g transform="translate(599.5366666666666 -325.05) scale(1)"><path d="M532,433Q450,541,314.5,560Q179,579,140.5,452Q102,325,133.5,186.5Q165,48,295.5,99.5Q426,151,520,238Q614,325,532,433Z" fill="#4f46e5" stroke="none" stroke-width="10"/></g></svg>