<svg class="border shadow-md" viewBox="0 0 924.5866666666667 520.08" xmlns="http://www.w3.org/2000/svg" preserveAspectRatio="none" style="width: 924.587px; height: 520.08px;"><rect class="bg" id="bg" x="0" y="0" width="924.5866666666667" height="520.08" fill="#5d3b5a"/><g transform="&#10;        translate(-577.8666666666667&#10;        -252.81666666666666)&#10;        scale(2.25)&#10;                        "><path d="M788,650Q679,838,494.5,782.5Q310,727,161,594.5Q12,462,167.5,341.5Q323,221,500.5,154.5Q678,88,787.5,275Q897,462,788,650Z" fill="#222f70" stroke="none" stroke-width="10"/></g><g transform="&#10;        translate(-471.53920000000005&#10;        -206.2984)&#10;        scale(2.02)&#10;                        "><path d="M788,650Q679,838,494.5,782.5Q310,727,161,594.5Q12,462,167.5,341.5Q323,221,500.5,154.5Q678,88,787.5,275Q897,462,788,650Z" fill="#26337e" stroke="none" stroke-width="10"/></g><g transform="&#10;        translate(-369.8346666666667&#10;        -161.80266666666668)&#10;        scale(1.80)&#10;                        "><path d="M788,650Q679,838,494.5,782.5Q310,727,161,594.5Q12,462,167.5,341.5Q323,221,500.5,154.5Q678,88,787.5,275Q897,462,788,650Z" fill="#2a378c" stroke="none" stroke-width="10"/></g><g transform="&#10;        translate(-263.5072&#10;        -115.2844)&#10;        scale(1.57)&#10;                        "><path d="M788,650Q679,838,494.5,782.5Q310,727,161,594.5Q12,462,167.5,341.5Q323,221,500.5,154.5Q678,88,787.5,275Q897,462,788,650Z" fill="#2e3b9a" stroke="none" stroke-width="10"/></g><g transform="&#10;        translate(-161.8026666666667&#10;        -70.78866666666669)&#10;        scale(1.35)&#10;                        "><path d="M788,650Q679,838,494.5,782.5Q310,727,161,594.5Q12,462,167.5,341.5Q323,221,500.5,154.5Q678,88,787.5,275Q897,462,788,650Z" fill="#323fa8" stroke="none" stroke-width="10"/></g><g transform="&#10;        translate(-60.09813333333329&#10;        -26.292933333333313)&#10;        scale(1.13)&#10;                        "><path d="M788,650Q679,838,494.5,782.5Q310,727,161,594.5Q12,462,167.5,341.5Q323,221,500.5,154.5Q678,88,787.5,275Q897,462,788,650Z" fill="#3643b6" stroke="none" stroke-width="10"/></g><g transform="&#10;        translate(46.22933333333332&#10;        20.225333333333328)&#10;        scale(0.90)&#10;                        "><path d="M788,650Q679,838,494.5,782.5Q310,727,161,594.5Q12,462,167.5,341.5Q323,221,500.5,154.5Q678,88,787.5,275Q897,462,788,650Z" fill="#3a47c4" stroke="none" stroke-width="10"/></g><g transform="&#10;        translate(147.93386666666666&#10;        64.72106666666666)&#10;        scale(0.68)&#10;                        "><path d="M788,650Q679,838,494.5,782.5Q310,727,161,594.5Q12,462,167.5,341.5Q323,221,500.5,154.5Q678,88,787.5,275Q897,462,788,650Z" fill="#3e4bd2" stroke="none" stroke-width="10"/></g><g transform="&#10;        translate(254.26133333333337&#10;        111.23933333333333)&#10;        scale(0.45)&#10;                        "><path d="M788,650Q679,838,494.5,782.5Q310,727,161,594.5Q12,462,167.5,341.5Q323,221,500.5,154.5Q678,88,787.5,275Q897,462,788,650Z" fill="#424fe0" stroke="none" stroke-width="10"/></g><g transform="&#10;        translate(355.96586666666667&#10;        155.73506666666665)&#10;        scale(0.23)&#10;                        "><path d="M788,650Q679,838,494.5,782.5Q310,727,161,594.5Q12,462,167.5,341.5Q323,221,500.5,154.5Q678,88,787.5,275Q897,462,788,650Z" fill="#4653ee" stroke="none" stroke-width="10"/></g></svg>