<svg xmlns="http://www.w3.org/2000/svg" viewBox="0 0 924.5866666666667 520.08"><rect width="924.5866666666667" height="520.08" fill="#5a31e3" id="bg" class="bg"/><g><g transform="translate(0.00,&#10;                                0.00) rotate(180, 22.013968253968255, 22.013968253968255)"><svg xmlns="http://www.w3.org/2000/svg" id="Layer_1" data-name="Layer 1" viewBox="0 0 100 100" width="44.02793650793651" height="44.02793650793651"><polygon points="50 50 25 0 0 50 50 50" fill="#D51FF5"/><polygon points="50 100 25 50 0 100 50 100" fill="#D51FF5"/><polygon points="100 50 75 0 50 50 100 50" fill="#D51FF5"/><polygon points="100 100 75 50 50 100 100 100" fill="#D51FF5"/></svg></g><g transform="translate(44.03,&#10;                                0.00) rotate(0, 22.013968253968255, 22.013968253968255)"><svg xmlns="http://www.w3.org/2000/svg" id="Layer_1" data-name="Layer 1" viewBox="0 0 100 100" width="44.02793650793651" height="44.02793650793651"><path d="M0,0V100H100V0ZM66.67,66.67H33.33V33.33H66.67Z" fill="#41EA22"/><rect x="33.333" y="-0.065" width="33.333" height="33.333" fill="#49A126"/><rect y="33.268" width="33.333" height="33.333" fill="#49A126"/><rect x="66.667" y="33.268" width="33.333" height="33.333" fill="#49A126"/><rect x="33.333" y="66.732" width="33.333" height="33.333" fill="#49A126"/></svg></g><g transform="translate(88.06,&#10;                                0.00) rotate(90, 22.013968253968255, 22.013968253968255)"><svg xmlns="http://www.w3.org/2000/svg" id="Layer_1" data-name="Layer 1" viewBox="0 0 100 100" width="44.02793650793651" height="44.02793650793651"><polygon points="50 50 25 0 0 50 50 50" fill="#D51FF5"/><polygon points="50 100 25 50 0 100 50 100" fill="#D51FF5"/><polygon points="100 50 75 0 50 50 100 50" fill="#D51FF5"/><polygon points="100 100 75 50 50 100 100 100" fill="#D51FF5"/></svg></g><g transform="translate(0.00,&#10;                                44.03) rotate(270, 22.013968253968255, 22.013968253968255)"><svg xmlns="http://www.w3.org/2000/svg" id="Layer_1" data-name="Layer 1" viewBox="0 0 100 100" width="44.02793650793651" height="44.02793650793651"><polygon points="100 0 41.895 0 0 0 0 41.895 0 100 41.895 100 41.895 41.895 100 41.895 100 0" fill="#C4C720"/></svg></g><g transform="translate(44.03,&#10;                                44.03) rotate(180, 22.013968253968255, 22.013968253968255)"><svg xmlns="http://www.w3.org/2000/svg" id="Layer_1" data-name="Layer 1" viewBox="0 0 100 100" width="44.02793650793651" height="44.02793650793651"><polygon points="100 0 41.895 0 0 0 0 41.895 0 100 41.895 100 41.895 41.895 100 41.895 100 0" fill="#C4C720"/></svg></g><g transform="translate(0.00,&#10;                                88.06) rotate(180, 22.013968253968255, 22.013968253968255)"><svg xmlns="http://www.w3.org/2000/svg" id="Layer_1" data-name="Layer 1" viewBox="0 0 100 100" width="44.02793650793651" height="44.02793650793651"><path d="M100,100A50,50,0,0,0,0,100Z" fill="#577AFD"/></svg></g><g transform="translate(44.03,&#10;                                88.06) rotate(270, 22.013968253968255, 22.013968253968255)"><svg xmlns="http://www.w3.org/2000/svg" id="Layer_1" data-name="Layer 1" viewBox="0 0 100 100" width="44.02793650793651" height="44.02793650793651"><polyline points="75 50 100 75 100 25" fill="#CC7A5C"/><polyline points="50 75 25 100 75 100" fill="#CC7A5C"/><polyline points="50 25 75 0 25 0" fill="#CC7A5C"/><polyline points="25 50 0 25 0 75" fill="#CC7A5C"/></svg></g><g transform="translate(88.06,&#10;                                88.06) rotate(0, 22.013968253968255, 22.013968253968255)"><svg xmlns="http://www.w3.org/2000/svg" id="Layer_1" data-name="Layer 1" viewBox="0 0 100 100" width="44.02793650793651" height="44.02793650793651"><path d="M0,0V100H100V0ZM66.67,66.67H33.33V33.33H66.67Z" fill="#41EA22"/><rect x="33.333" y="-0.065" width="33.333" height="33.333" fill="#49A126"/><rect y="33.268" width="33.333" height="33.333" fill="#49A126"/><rect x="66.667" y="33.268" width="33.333" height="33.333" fill="#49A126"/><rect x="33.333" y="66.732" width="33.333" height="33.333" fill="#49A126"/></svg></g><g transform="translate(132.08,&#10;                                0.00) rotate(90, 22.013968253968255, 22.013968253968255)"><svg xmlns="http://www.w3.org/2000/svg" id="Layer_1" data-name="Layer 1" viewBox="0 0 100 100" width="44.02793650793651" height="44.02793650793651"><polyline points="75 50 100 75 100 25" fill="#CC7A5C"/><polyline points="50 75 25 100 75 100" fill="#CC7A5C"/><polyline points="50 25 75 0 25 0" fill="#CC7A5C"/><polyline points="25 50 0 25 0 75" fill="#CC7A5C"/></svg></g><g transform="translate(176.11,&#10;                                0.00) rotate(180, 22.013968253968255, 22.013968253968255)"><svg xmlns="http://www.w3.org/2000/svg" id="Layer_1" data-name="Layer 1" viewBox="0 0 100 100" width="44.02793650793651" height="44.02793650793651"><polygon points="52.913 0 2.913 50 52.913 100 100 100 100 0 52.913 0" fill="#7415C9"/><polygon points="100 0 50 50 100 100 100 0" fill="#6256C1"/></svg></g><g transform="translate(220.14,&#10;                                0.00) rotate(180, 22.013968253968255, 22.013968253968255)"><svg xmlns="http://www.w3.org/2000/svg" id="Layer_1" data-name="Layer 1" viewBox="0 0 100 100" width="44.02793650793651" height="44.02793650793651"><path d="M100,100A50,50,0,0,0,0,100Z" fill="#F7B801"/></svg></g><g transform="translate(132.08,&#10;                                44.03) rotate(180, 22.013968253968255, 22.013968253968255)"><svg xmlns="http://www.w3.org/2000/svg" id="Layer_1" data-name="Layer 1" viewBox="0 0 100 100" width="44.02793650793651" height="44.02793650793651"><polyline points="75 50 100 75 100 25" fill="#CC7A5C"/><polyline points="50 75 25 100 75 100" fill="#CC7A5C"/><polyline points="50 25 75 0 25 0" fill="#CC7A5C"/><polyline points="25 50 0 25 0 75" fill="#CC7A5C"/></svg></g><g transform="translate(176.11,&#10;                                44.03) rotate(0, 22.013968253968255, 22.013968253968255)"><svg xmlns="http://www.w3.org/2000/svg" id="Layer_1" data-name="Layer 1" viewBox="0 0 100 100" width="44.02793650793651" height="44.02793650793651"><path d="M50,100a50,50,0,1,1,50-50v50Z" fill="#636367"/></svg></g><g transform="translate(220.14,&#10;                                44.03) rotate(0, 22.013968253968255, 22.013968253968255)"><svg xmlns="http://www.w3.org/2000/svg" id="Layer_1" data-name="Layer 1" viewBox="0 0 100 100" width="44.02793650793651" height="44.02793650793651"><path d="M100,100A50,50,0,0,0,0,100Z" fill="#F7B801"/></svg></g><g transform="translate(132.08,&#10;                                88.06) rotate(180, 22.013968253968255, 22.013968253968255)"><svg xmlns="http://www.w3.org/2000/svg" id="Layer_1" data-name="Layer 1" viewBox="0 0 100 100" width="44.02793650793651" height="44.02793650793651"><path d="M100,100A50,50,0,0,0,0,100Z" fill="#577AFD"/></svg></g><g transform="translate(176.11,&#10;                                88.06) rotate(90, 22.013968253968255, 22.013968253968255)"><svg xmlns="http://www.w3.org/2000/svg" id="Layer_1" data-name="Layer 1" viewBox="0 0 100 100" width="44.02793650793651" height="44.02793650793651"><path d="M100,100A100,100,0,0,0,0,0V100Z" fill="#F18701"/><path d="M50,100A50,50,0,0,0,0,50v50Z" fill="#6F674E"/></svg></g><g transform="translate(220.14,&#10;                                88.06) rotate(270, 22.013968253968255, 22.013968253968255)"><svg xmlns="http://www.w3.org/2000/svg" id="Layer_1" data-name="Layer 1" viewBox="0 0 100 100" width="44.02793650793651" height="44.02793650793651"><path d="M0,0V100H100V0ZM66.67,66.67H33.33V33.33H66.67Z" fill="#41EA22"/><rect x="33.333" y="-0.065" width="33.333" height="33.333" fill="#49A126"/><rect y="33.268" width="33.333" height="33.333" fill="#49A126"/><rect x="66.667" y="33.268" width="33.333" height="33.333" fill="#49A126"/><rect x="33.333" y="66.732" width="33.333" height="33.333" fill="#49A126"/></svg></g><g transform="translate(264.17,&#10;                                0.00) rotate(0, 22.013968253968255, 22.013968253968255)"><svg xmlns="http://www.w3.org/2000/svg" id="Layer_1" data-name="Layer 1" viewBox="0 0 100 100" width="44.02793650793651" height="44.02793650793651"><polyline points="75 50 100 75 100 25" fill="#CC7A5C"/><polyline points="50 75 25 100 75 100" fill="#CC7A5C"/><polyline points="50 25 75 0 25 0" fill="#CC7A5C"/><polyline points="25 50 0 25 0 75" fill="#CC7A5C"/></svg></g><g transform="translate(308.20,&#10;                                0.00) rotate(90, 22.013968253968255, 22.013968253968255)"><svg xmlns="http://www.w3.org/2000/svg" id="Layer_1" data-name="Layer 1" viewBox="0 0 100 100" width="44.02793650793651" height="44.02793650793651"><polygon points="52.913 0 2.913 50 52.913 100 100 100 100 0 52.913 0" fill="#7415C9"/><polygon points="100 0 50 50 100 100 100 0" fill="#6256C1"/></svg></g><g transform="translate(352.22,&#10;                                0.00) rotate(90, 22.013968253968255, 22.013968253968255)"><svg xmlns="http://www.w3.org/2000/svg" id="Layer_1" data-name="Layer 1" viewBox="0 0 100 100" width="44.02793650793651" height="44.02793650793651"><polyline points="75 50 100 75 100 25" fill="#CC7A5C"/><polyline points="50 75 25 100 75 100" fill="#CC7A5C"/><polyline points="50 25 75 0 25 0" fill="#CC7A5C"/><polyline points="25 50 0 25 0 75" fill="#CC7A5C"/></svg></g><g transform="translate(264.17,&#10;                                44.03) rotate(90, 22.013968253968255, 22.013968253968255)"><svg xmlns="http://www.w3.org/2000/svg" id="Layer_1" data-name="Layer 1" viewBox="0 0 100 100" width="44.02793650793651" height="44.02793650793651"><path d="M50,100a50,50,0,1,1,50-50v50Z" fill="#636367"/></svg></g><g transform="translate(308.20,&#10;                                44.03) rotate(270, 22.013968253968255, 22.013968253968255)"><svg xmlns="http://www.w3.org/2000/svg" id="Layer_1" data-name="Layer 1" viewBox="0 0 100 100" width="44.02793650793651" height="44.02793650793651"><path d="M100,100A100,100,0,0,0,0,0V100Z" fill="#F18701"/><path d="M50,100A50,50,0,0,0,0,50v50Z" fill="#6F674E"/></svg></g><g transform="translate(264.17,&#10;                                88.06) rotate(270, 22.013968253968255, 22.013968253968255)"><svg xmlns="http://www.w3.org/2000/svg" id="Layer_1" data-name="Layer 1" viewBox="0 0 100 100" width="44.02793650793651" height="44.02793650793651"><path d="M0,0V100H100V0ZM66.67,66.67H33.33V33.33H66.67Z" fill="#41EA22"/><rect x="33.333" y="-0.065" width="33.333" height="33.333" fill="#49A126"/><rect y="33.268" width="33.333" height="33.333" fill="#49A126"/><rect x="66.667" y="33.268" width="33.333" height="33.333" fill="#49A126"/><rect x="33.333" y="66.732" width="33.333" height="33.333" fill="#49A126"/></svg></g><g transform="translate(308.20,&#10;                                88.06) rotate(180, 22.013968253968255, 22.013968253968255)"><svg xmlns="http://www.w3.org/2000/svg" id="Layer_1" data-name="Layer 1" viewBox="0 0 100 100" width="44.02793650793651" height="44.02793650793651"><path d="M100,100A100,100,0,0,0,0,0V100Z" fill="#F18701"/><path d="M50,100A50,50,0,0,0,0,50v50Z" fill="#6F674E"/></svg></g><g transform="translate(396.25,&#10;                                0.00) rotate(90, 22.013968253968255, 22.013968253968255)"><svg xmlns="http://www.w3.org/2000/svg" id="Layer_1" data-name="Layer 1" viewBox="0 0 100 100" width="44.02793650793651" height="44.02793650793651"><polygon points="100 0 41.895 0 0 0 0 41.895 0 100 41.895 100 41.895 41.895 100 41.895 100 0" fill="#C4C720"/></svg></g><g transform="translate(440.28,&#10;                                0.00) rotate(90, 22.013968253968255, 22.013968253968255)"><svg xmlns="http://www.w3.org/2000/svg" id="Layer_1" data-name="Layer 1" viewBox="0 0 100 100" width="44.02793650793651" height="44.02793650793651"><polygon points="52.913 0 2.913 50 52.913 100 100 100 100 0 52.913 0" fill="#7415C9"/><polygon points="100 0 50 50 100 100 100 0" fill="#6256C1"/></svg></g><g transform="translate(396.25,&#10;                                44.03) rotate(90, 22.013968253968255, 22.013968253968255)"><svg xmlns="http://www.w3.org/2000/svg" id="Layer_1" data-name="Layer 1" viewBox="0 0 100 100" width="44.02793650793651" height="44.02793650793651"><path d="M100,100A100,100,0,0,0,0,0V100Z" fill="#F18701"/><path d="M50,100A50,50,0,0,0,0,50v50Z" fill="#6F674E"/></svg></g><g transform="translate(440.28,&#10;                                44.03) rotate(0, 22.013968253968255, 22.013968253968255)"><svg xmlns="http://www.w3.org/2000/svg" id="Layer_1" data-name="Layer 1" viewBox="0 0 100 100" width="44.02793650793651" height="44.02793650793651"><path d="M100,100A50,50,0,0,0,0,100Z" fill="#577AFD"/></svg></g><g transform="translate(396.25,&#10;                                88.06) rotate(0, 22.013968253968255, 22.013968253968255)"><svg xmlns="http://www.w3.org/2000/svg" id="Layer_1" data-name="Layer 1" viewBox="0 0 100 100" width="44.02793650793651" height="44.02793650793651"><polyline points="75 50 100 75 100 25" fill="#CC7A5C"/><polyline points="50 75 25 100 75 100" fill="#CC7A5C"/><polyline points="50 25 75 0 25 0" fill="#CC7A5C"/><polyline points="25 50 0 25 0 75" fill="#CC7A5C"/></svg></g><g transform="translate(440.28,&#10;                                88.06) rotate(270, 22.013968253968255, 22.013968253968255)"><svg xmlns="http://www.w3.org/2000/svg" id="Layer_1" data-name="Layer 1" viewBox="0 0 100 100" width="44.02793650793651" height="44.02793650793651"><path d="M50,100a50,50,0,1,1,50-50v50Z" fill="#636367"/></svg></g><g transform="translate(528.34,&#10;                                0.00) rotate(90, 22.013968253968255, 22.013968253968255)"><svg xmlns="http://www.w3.org/2000/svg" id="Layer_1" data-name="Layer 1" viewBox="0 0 100 100" width="44.02793650793651" height="44.02793650793651"><polygon points="50 50 25 0 0 50 50 50" fill="#D51FF5"/><polygon points="50 100 25 50 0 100 50 100" fill="#D51FF5"/><polygon points="100 50 75 0 50 50 100 50" fill="#D51FF5"/><polygon points="100 100 75 50 50 100 100 100" fill="#D51FF5"/></svg></g><g transform="translate(572.36,&#10;                                0.00) rotate(270, 22.013968253968255, 22.013968253968255)"><svg xmlns="http://www.w3.org/2000/svg" id="Layer_1" data-name="Layer 1" viewBox="0 0 100 100" width="44.02793650793651" height="44.02793650793651"><polygon points="100 0 41.895 0 0 0 0 41.895 0 100 41.895 100 41.895 41.895 100 41.895 100 0" fill="#C4C720"/></svg></g><g transform="translate(616.39,&#10;                                0.00) rotate(270, 22.013968253968255, 22.013968253968255)"><svg xmlns="http://www.w3.org/2000/svg" id="Layer_1" data-name="Layer 1" viewBox="0 0 100 100" width="44.02793650793651" height="44.02793650793651"><polyline points="75 50 100 75 100 25" fill="#CC7A5C"/><polyline points="50 75 25 100 75 100" fill="#CC7A5C"/><polyline points="50 25 75 0 25 0" fill="#CC7A5C"/><polyline points="25 50 0 25 0 75" fill="#CC7A5C"/></svg></g><g transform="translate(528.34,&#10;                                44.03) rotate(90, 22.013968253968255, 22.013968253968255)"><svg xmlns="http://www.w3.org/2000/svg" id="Layer_1" data-name="Layer 1" viewBox="0 0 100 100" width="44.02793650793651" height="44.02793650793651"><polyline points="75 50 100 75 100 25" fill="#CC7A5C"/><polyline points="50 75 25 100 75 100" fill="#CC7A5C"/><polyline points="50 25 75 0 25 0" fill="#CC7A5C"/><polyline points="25 50 0 25 0 75" fill="#CC7A5C"/></svg></g><g transform="translate(572.36,&#10;                                44.03) rotate(270, 22.013968253968255, 22.013968253968255)"><svg xmlns="http://www.w3.org/2000/svg" id="Layer_1" data-name="Layer 1" viewBox="0 0 100 100" width="44.02793650793651" height="44.02793650793651"><path d="M100,100A50,50,0,0,0,0,100Z" fill="#F7B801"/></svg></g><g transform="translate(616.39,&#10;                                44.03) rotate(180, 22.013968253968255, 22.013968253968255)"><svg xmlns="http://www.w3.org/2000/svg" id="Layer_1" data-name="Layer 1" viewBox="0 0 100 100" width="44.02793650793651" height="44.02793650793651"><polygon points="52.913 0 2.913 50 52.913 100 100 100 100 0 52.913 0" fill="#7415C9"/><polygon points="100 0 50 50 100 100 100 0" fill="#6256C1"/></svg></g><g transform="translate(528.34,&#10;                                88.06) rotate(90, 22.013968253968255, 22.013968253968255)"><svg xmlns="http://www.w3.org/2000/svg" id="Layer_1" data-name="Layer 1" viewBox="0 0 100 100" width="44.02793650793651" height="44.02793650793651"><path d="M100,100A50,50,0,0,0,0,100Z" fill="#577AFD"/></svg></g><g transform="translate(572.36,&#10;                                88.06) rotate(270, 22.013968253968255, 22.013968253968255)"><svg xmlns="http://www.w3.org/2000/svg" id="Layer_1" data-name="Layer 1" viewBox="0 0 100 100" width="44.02793650793651" height="44.02793650793651"><polygon points="52.913 0 2.913 50 52.913 100 100 100 100 0 52.913 0" fill="#7415C9"/><polygon points="100 0 50 50 100 100 100 0" fill="#6256C1"/></svg></g><g transform="translate(616.39,&#10;                                88.06) rotate(90, 22.013968253968255, 22.013968253968255)"><svg xmlns="http://www.w3.org/2000/svg" id="Layer_1" data-name="Layer 1" viewBox="0 0 100 100" width="44.02793650793651" height="44.02793650793651"><path d="M0,0V100H100V0ZM66.67,66.67H33.33V33.33H66.67Z" fill="#41EA22"/><rect x="33.333" y="-0.065" width="33.333" height="33.333" fill="#49A126"/><rect y="33.268" width="33.333" height="33.333" fill="#49A126"/><rect x="66.667" y="33.268" width="33.333" height="33.333" fill="#49A126"/><rect x="33.333" y="66.732" width="33.333" height="33.333" fill="#49A126"/></svg></g><g transform="translate(660.42,&#10;                                0.00) rotate(180, 22.013968253968255, 22.013968253968255)"><svg xmlns="http://www.w3.org/2000/svg" id="Layer_1" data-name="Layer 1" viewBox="0 0 100 100" width="44.02793650793651" height="44.02793650793651"><polyline points="75 50 100 75 100 25" fill="#CC7A5C"/><polyline points="50 75 25 100 75 100" fill="#CC7A5C"/><polyline points="50 25 75 0 25 0" fill="#CC7A5C"/><polyline points="25 50 0 25 0 75" fill="#CC7A5C"/></svg></g><g transform="translate(704.45,&#10;                                0.00) rotate(180, 22.013968253968255, 22.013968253968255)"><svg xmlns="http://www.w3.org/2000/svg" id="Layer_1" data-name="Layer 1" viewBox="0 0 100 100" width="44.02793650793651" height="44.02793650793651"><path d="M100,100A50,50,0,0,0,0,100Z" fill="#577AFD"/></svg></g><g transform="translate(748.47,&#10;                                0.00) rotate(270, 22.013968253968255, 22.013968253968255)"><svg xmlns="http://www.w3.org/2000/svg" id="Layer_1" data-name="Layer 1" viewBox="0 0 100 100" width="44.02793650793651" height="44.02793650793651"><polyline points="75 50 100 75 100 25" fill="#CC7A5C"/><polyline points="50 75 25 100 75 100" fill="#CC7A5C"/><polyline points="50 25 75 0 25 0" fill="#CC7A5C"/><polyline points="25 50 0 25 0 75" fill="#CC7A5C"/></svg></g><g transform="translate(660.42,&#10;                                44.03) rotate(270, 22.013968253968255, 22.013968253968255)"><svg xmlns="http://www.w3.org/2000/svg" id="Layer_1" data-name="Layer 1" viewBox="0 0 100 100" width="44.02793650793651" height="44.02793650793651"><path d="M100,100A100,100,0,0,0,0,0V100Z" fill="#F18701"/><path d="M50,100A50,50,0,0,0,0,50v50Z" fill="#6F674E"/></svg></g><g transform="translate(704.45,&#10;                                44.03) rotate(270, 22.013968253968255, 22.013968253968255)"><svg xmlns="http://www.w3.org/2000/svg" id="Layer_1" data-name="Layer 1" viewBox="0 0 100 100" width="44.02793650793651" height="44.02793650793651"><polygon points="52.913 0 2.913 50 52.913 100 100 100 100 0 52.913 0" fill="#7415C9"/><polygon points="100 0 50 50 100 100 100 0" fill="#6256C1"/></svg></g><g transform="translate(748.47,&#10;                                44.03) rotate(0, 22.013968253968255, 22.013968253968255)"><svg xmlns="http://www.w3.org/2000/svg" id="Layer_1" data-name="Layer 1" viewBox="0 0 100 100" width="44.02793650793651" height="44.02793650793651"><path d="M100,100A50,50,0,0,0,0,100Z" fill="#F7B801"/></svg></g><g transform="translate(660.42,&#10;                                88.06) rotate(270, 22.013968253968255, 22.013968253968255)"><svg xmlns="http://www.w3.org/2000/svg" id="Layer_1" data-name="Layer 1" viewBox="0 0 100 100" width="44.02793650793651" height="44.02793650793651"><path d="M100,100A50,50,0,0,0,0,100Z" fill="#577AFD"/></svg></g><g transform="translate(704.45,&#10;                                88.06) rotate(0, 22.013968253968255, 22.013968253968255)"><svg xmlns="http://www.w3.org/2000/svg" id="Layer_1" data-name="Layer 1" viewBox="0 0 100 100" width="44.02793650793651" height="44.02793650793651"><polygon points="52.913 0 2.913 50 52.913 100 100 100 100 0 52.913 0" fill="#7415C9"/><polygon points="100 0 50 50 100 100 100 0" fill="#6256C1"/></svg></g><g transform="translate(792.50,&#10;                                0.00) rotate(0, 22.013968253968255, 22.013968253968255)"><svg xmlns="http://www.w3.org/2000/svg" id="Layer_1" data-name="Layer 1" viewBox="0 0 100 100" width="44.02793650793651" height="44.02793650793651"><polygon points="50 50 25 0 0 50 50 50" fill="#D51FF5"/><polygon points="50 100 25 50 0 100 50 100" fill="#D51FF5"/><polygon points="100 50 75 0 50 50 100 50" fill="#D51FF5"/><polygon points="100 100 75 50 50 100 100 100" fill="#D51FF5"/></svg></g><g transform="translate(836.53,&#10;                                0.00) rotate(90, 22.013968253968255, 22.013968253968255)"><svg xmlns="http://www.w3.org/2000/svg" id="Layer_1" data-name="Layer 1" viewBox="0 0 100 100" width="44.02793650793651" height="44.02793650793651"><polygon points="52.913 0 2.913 50 52.913 100 100 100 100 0 52.913 0" fill="#7415C9"/><polygon points="100 0 50 50 100 100 100 0" fill="#6256C1"/></svg></g><g transform="translate(792.50,&#10;                                44.03) rotate(0, 22.013968253968255, 22.013968253968255)"><svg xmlns="http://www.w3.org/2000/svg" id="Layer_1" data-name="Layer 1" viewBox="0 0 100 100" width="44.02793650793651" height="44.02793650793651"><path d="M50,100a50,50,0,1,1,50-50v50Z" fill="#636367"/></svg></g><g transform="translate(836.53,&#10;                                44.03) rotate(90, 22.013968253968255, 22.013968253968255)"><svg xmlns="http://www.w3.org/2000/svg" id="Layer_1" data-name="Layer 1" viewBox="0 0 100 100" width="44.02793650793651" height="44.02793650793651"><path d="M100,100A100,100,0,0,0,0,0V100Z" fill="#F18701"/><path d="M50,100A50,50,0,0,0,0,50v50Z" fill="#6F674E"/></svg></g><g transform="translate(880.56,&#10;                                44.03) rotate(270, 22.013968253968255, 22.013968253968255)"><svg xmlns="http://www.w3.org/2000/svg" id="Layer_1" data-name="Layer 1" viewBox="0 0 100 100" width="44.02793650793651" height="44.02793650793651"><polygon points="52.913 0 2.913 50 52.913 100 100 100 100 0 52.913 0" fill="#7415C9"/><polygon points="100 0 50 50 100 100 100 0" fill="#6256C1"/></svg></g><g transform="translate(792.50,&#10;                                88.06) rotate(180, 22.013968253968255, 22.013968253968255)"><svg xmlns="http://www.w3.org/2000/svg" id="Layer_1" data-name="Layer 1" viewBox="0 0 100 100" width="44.02793650793651" height="44.02793650793651"><path d="M100,100A50,50,0,0,0,0,100Z" fill="#577AFD"/></svg></g><g transform="translate(836.53,&#10;                                88.06) rotate(0, 22.013968253968255, 22.013968253968255)"><svg xmlns="http://www.w3.org/2000/svg" id="Layer_1" data-name="Layer 1" viewBox="0 0 100 100" width="44.02793650793651" height="44.02793650793651"><polyline points="75 50 100 75 100 25" fill="#CC7A5C"/><polyline points="50 75 25 100 75 100" fill="#CC7A5C"/><polyline points="50 25 75 0 25 0" fill="#CC7A5C"/><polyline points="25 50 0 25 0 75" fill="#CC7A5C"/></svg></g><g transform="translate(880.56,&#10;                                88.06) rotate(270, 22.013968253968255, 22.013968253968255)"><svg xmlns="http://www.w3.org/2000/svg" id="Layer_1" data-name="Layer 1" viewBox="0 0 100 100" width="44.02793650793651" height="44.02793650793651"><path d="M100,100A50,50,0,0,0,0,100Z" fill="#577AFD"/></svg></g></g><g><g transform="translate(0.00,&#10;                                132.08) rotate(180, 22.013968253968255, 22.013968253968255)"><svg xmlns="http://www.w3.org/2000/svg" id="Layer_1" data-name="Layer 1" viewBox="0 0 100 100" width="44.02793650793651" height="44.02793650793651"><polyline points="75 50 100 75 100 25" fill="#CC7A5C"/><polyline points="50 75 25 100 75 100" fill="#CC7A5C"/><polyline points="50 25 75 0 25 0" fill="#CC7A5C"/><polyline points="25 50 0 25 0 75" fill="#CC7A5C"/></svg></g><g transform="translate(44.03,&#10;                                132.08) rotate(0, 22.013968253968255, 22.013968253968255)"><svg xmlns="http://www.w3.org/2000/svg" id="Layer_1" data-name="Layer 1" viewBox="0 0 100 100" width="44.02793650793651" height="44.02793650793651"><path d="M100,100A50,50,0,0,0,0,100Z" fill="#577AFD"/></svg></g><g transform="translate(88.06,&#10;                                132.08) rotate(270, 22.013968253968255, 22.013968253968255)"><svg xmlns="http://www.w3.org/2000/svg" id="Layer_1" data-name="Layer 1" viewBox="0 0 100 100" width="44.02793650793651" height="44.02793650793651"><polygon points="50 50 25 0 0 50 50 50" fill="#D51FF5"/><polygon points="50 100 25 50 0 100 50 100" fill="#D51FF5"/><polygon points="100 50 75 0 50 50 100 50" fill="#D51FF5"/><polygon points="100 100 75 50 50 100 100 100" fill="#D51FF5"/></svg></g><g transform="translate(0.00,&#10;                                176.11) rotate(270, 22.013968253968255, 22.013968253968255)"><svg xmlns="http://www.w3.org/2000/svg" id="Layer_1" data-name="Layer 1" viewBox="0 0 100 100" width="44.02793650793651" height="44.02793650793651"><polyline points="75 50 100 75 100 25" fill="#CC7A5C"/><polyline points="50 75 25 100 75 100" fill="#CC7A5C"/><polyline points="50 25 75 0 25 0" fill="#CC7A5C"/><polyline points="25 50 0 25 0 75" fill="#CC7A5C"/></svg></g><g transform="translate(44.03,&#10;                                176.11) rotate(90, 22.013968253968255, 22.013968253968255)"><svg xmlns="http://www.w3.org/2000/svg" id="Layer_1" data-name="Layer 1" viewBox="0 0 100 100" width="44.02793650793651" height="44.02793650793651"><polygon points="52.913 0 2.913 50 52.913 100 100 100 100 0 52.913 0" fill="#7415C9"/><polygon points="100 0 50 50 100 100 100 0" fill="#6256C1"/></svg></g><g transform="translate(88.06,&#10;                                176.11) rotate(180, 22.013968253968255, 22.013968253968255)"><svg xmlns="http://www.w3.org/2000/svg" id="Layer_1" data-name="Layer 1" viewBox="0 0 100 100" width="44.02793650793651" height="44.02793650793651"><polygon points="52.913 0 2.913 50 52.913 100 100 100 100 0 52.913 0" fill="#7415C9"/><polygon points="100 0 50 50 100 100 100 0" fill="#6256C1"/></svg></g><g transform="translate(0.00,&#10;                                220.14) rotate(0, 22.013968253968255, 22.013968253968255)"><svg xmlns="http://www.w3.org/2000/svg" id="Layer_1" data-name="Layer 1" viewBox="0 0 100 100" width="44.02793650793651" height="44.02793650793651"><path d="M100,100A50,50,0,0,0,0,100Z" fill="#577AFD"/></svg></g><g transform="translate(44.03,&#10;                                220.14) rotate(270, 22.013968253968255, 22.013968253968255)"><svg xmlns="http://www.w3.org/2000/svg" id="Layer_1" data-name="Layer 1" viewBox="0 0 100 100" width="44.02793650793651" height="44.02793650793651"><path d="M50,100a50,50,0,1,1,50-50v50Z" fill="#636367"/></svg></g><g transform="translate(88.06,&#10;                                220.14) rotate(180, 22.013968253968255, 22.013968253968255)"><svg xmlns="http://www.w3.org/2000/svg" id="Layer_1" data-name="Layer 1" viewBox="0 0 100 100" width="44.02793650793651" height="44.02793650793651"><path d="M0,0V100H100V0ZM66.67,66.67H33.33V33.33H66.67Z" fill="#41EA22"/><rect x="33.333" y="-0.065" width="33.333" height="33.333" fill="#49A126"/><rect y="33.268" width="33.333" height="33.333" fill="#49A126"/><rect x="66.667" y="33.268" width="33.333" height="33.333" fill="#49A126"/><rect x="33.333" y="66.732" width="33.333" height="33.333" fill="#49A126"/></svg></g><g transform="translate(132.08,&#10;                                132.08) rotate(90, 22.013968253968255, 22.013968253968255)"><svg xmlns="http://www.w3.org/2000/svg" id="Layer_1" data-name="Layer 1" viewBox="0 0 100 100" width="44.02793650793651" height="44.02793650793651"><polygon points="50 50 25 0 0 50 50 50" fill="#D51FF5"/><polygon points="50 100 25 50 0 100 50 100" fill="#D51FF5"/><polygon points="100 50 75 0 50 50 100 50" fill="#D51FF5"/><polygon points="100 100 75 50 50 100 100 100" fill="#D51FF5"/></svg></g><g transform="translate(220.14,&#10;                                132.08) rotate(90, 22.013968253968255, 22.013968253968255)"><svg xmlns="http://www.w3.org/2000/svg" id="Layer_1" data-name="Layer 1" viewBox="0 0 100 100" width="44.02793650793651" height="44.02793650793651"><polygon points="50 50 25 0 0 50 50 50" fill="#D51FF5"/><polygon points="50 100 25 50 0 100 50 100" fill="#D51FF5"/><polygon points="100 50 75 0 50 50 100 50" fill="#D51FF5"/><polygon points="100 100 75 50 50 100 100 100" fill="#D51FF5"/></svg></g><g transform="translate(132.08,&#10;                                176.11) rotate(270, 22.013968253968255, 22.013968253968255)"><svg xmlns="http://www.w3.org/2000/svg" id="Layer_1" data-name="Layer 1" viewBox="0 0 100 100" width="44.02793650793651" height="44.02793650793651"><path d="M50,100a50,50,0,1,1,50-50v50Z" fill="#636367"/></svg></g><g transform="translate(176.11,&#10;                                176.11) rotate(90, 22.013968253968255, 22.013968253968255)"><svg xmlns="http://www.w3.org/2000/svg" id="Layer_1" data-name="Layer 1" viewBox="0 0 100 100" width="44.02793650793651" height="44.02793650793651"><path d="M50,100a50,50,0,1,1,50-50v50Z" fill="#636367"/></svg></g><g transform="translate(132.08,&#10;                                220.14) rotate(180, 22.013968253968255, 22.013968253968255)"><svg xmlns="http://www.w3.org/2000/svg" id="Layer_1" data-name="Layer 1" viewBox="0 0 100 100" width="44.02793650793651" height="44.02793650793651"><polyline points="75 50 100 75 100 25" fill="#CC7A5C"/><polyline points="50 75 25 100 75 100" fill="#CC7A5C"/><polyline points="50 25 75 0 25 0" fill="#CC7A5C"/><polyline points="25 50 0 25 0 75" fill="#CC7A5C"/></svg></g><g transform="translate(176.11,&#10;                                220.14) rotate(180, 22.013968253968255, 22.013968253968255)"><svg xmlns="http://www.w3.org/2000/svg" id="Layer_1" data-name="Layer 1" viewBox="0 0 100 100" width="44.02793650793651" height="44.02793650793651"><polyline points="75 50 100 75 100 25" fill="#CC7A5C"/><polyline points="50 75 25 100 75 100" fill="#CC7A5C"/><polyline points="50 25 75 0 25 0" fill="#CC7A5C"/><polyline points="25 50 0 25 0 75" fill="#CC7A5C"/></svg></g><g transform="translate(264.17,&#10;                                132.08) rotate(180, 22.013968253968255, 22.013968253968255)"><svg xmlns="http://www.w3.org/2000/svg" id="Layer_1" data-name="Layer 1" viewBox="0 0 100 100" width="44.02793650793651" height="44.02793650793651"><polygon points="50 50 25 0 0 50 50 50" fill="#D51FF5"/><polygon points="50 100 25 50 0 100 50 100" fill="#D51FF5"/><polygon points="100 50 75 0 50 50 100 50" fill="#D51FF5"/><polygon points="100 100 75 50 50 100 100 100" fill="#D51FF5"/></svg></g><g transform="translate(308.20,&#10;                                132.08) rotate(180, 22.013968253968255, 22.013968253968255)"><svg xmlns="http://www.w3.org/2000/svg" id="Layer_1" data-name="Layer 1" viewBox="0 0 100 100" width="44.02793650793651" height="44.02793650793651"><path d="M100,100A50,50,0,0,0,0,100Z" fill="#577AFD"/></svg></g><g transform="translate(352.22,&#10;                                132.08) rotate(180, 22.013968253968255, 22.013968253968255)"><svg xmlns="http://www.w3.org/2000/svg" id="Layer_1" data-name="Layer 1" viewBox="0 0 100 100" width="44.02793650793651" height="44.02793650793651"><polygon points="50 50 25 0 0 50 50 50" fill="#D51FF5"/><polygon points="50 100 25 50 0 100 50 100" fill="#D51FF5"/><polygon points="100 50 75 0 50 50 100 50" fill="#D51FF5"/><polygon points="100 100 75 50 50 100 100 100" fill="#D51FF5"/></svg></g><g transform="translate(264.17,&#10;                                176.11) rotate(180, 22.013968253968255, 22.013968253968255)"><svg xmlns="http://www.w3.org/2000/svg" id="Layer_1" data-name="Layer 1" viewBox="0 0 100 100" width="44.02793650793651" height="44.02793650793651"><path d="M100,100A100,100,0,0,0,0,0V100Z" fill="#F18701"/><path d="M50,100A50,50,0,0,0,0,50v50Z" fill="#6F674E"/></svg></g><g transform="translate(308.20,&#10;                                176.11) rotate(270, 22.013968253968255, 22.013968253968255)"><svg xmlns="http://www.w3.org/2000/svg" id="Layer_1" data-name="Layer 1" viewBox="0 0 100 100" width="44.02793650793651" height="44.02793650793651"><path d="M100,100A50,50,0,0,0,0,100Z" fill="#F7B801"/></svg></g><g transform="translate(352.22,&#10;                                176.11) rotate(270, 22.013968253968255, 22.013968253968255)"><svg xmlns="http://www.w3.org/2000/svg" id="Layer_1" data-name="Layer 1" viewBox="0 0 100 100" width="44.02793650793651" height="44.02793650793651"><path d="M100,100A50,50,0,0,0,0,100Z" fill="#F7B801"/></svg></g><g transform="translate(264.17,&#10;                                220.14) rotate(180, 22.013968253968255, 22.013968253968255)"><svg xmlns="http://www.w3.org/2000/svg" id="Layer_1" data-name="Layer 1" viewBox="0 0 100 100" width="44.02793650793651" height="44.02793650793651"><path d="M100,100A50,50,0,0,0,0,100Z" fill="#577AFD"/></svg></g><g transform="translate(308.20,&#10;                                220.14) rotate(90, 22.013968253968255, 22.013968253968255)"><svg xmlns="http://www.w3.org/2000/svg" id="Layer_1" data-name="Layer 1" viewBox="0 0 100 100" width="44.02793650793651" height="44.02793650793651"><path d="M50,100a50,50,0,1,1,50-50v50Z" fill="#636367"/></svg></g><g transform="translate(352.22,&#10;                                220.14) rotate(270, 22.013968253968255, 22.013968253968255)"><svg xmlns="http://www.w3.org/2000/svg" id="Layer_1" data-name="Layer 1" viewBox="0 0 100 100" width="44.02793650793651" height="44.02793650793651"><path d="M0,0V100H100V0ZM66.67,66.67H33.33V33.33H66.67Z" fill="#41EA22"/><rect x="33.333" y="-0.065" width="33.333" height="33.333" fill="#49A126"/><rect y="33.268" width="33.333" height="33.333" fill="#49A126"/><rect x="66.667" y="33.268" width="33.333" height="33.333" fill="#49A126"/><rect x="33.333" y="66.732" width="33.333" height="33.333" fill="#49A126"/></svg></g><g transform="translate(396.25,&#10;                                132.08) rotate(270, 22.013968253968255, 22.013968253968255)"><svg xmlns="http://www.w3.org/2000/svg" id="Layer_1" data-name="Layer 1" viewBox="0 0 100 100" width="44.02793650793651" height="44.02793650793651"><polygon points="100 0 41.895 0 0 0 0 41.895 0 100 41.895 100 41.895 41.895 100 41.895 100 0" fill="#C4C720"/></svg></g><g transform="translate(440.28,&#10;                                132.08) rotate(0, 22.013968253968255, 22.013968253968255)"><svg xmlns="http://www.w3.org/2000/svg" id="Layer_1" data-name="Layer 1" viewBox="0 0 100 100" width="44.02793650793651" height="44.02793650793651"><path d="M0,0V100H100V0ZM66.67,66.67H33.33V33.33H66.67Z" fill="#41EA22"/><rect x="33.333" y="-0.065" width="33.333" height="33.333" fill="#49A126"/><rect y="33.268" width="33.333" height="33.333" fill="#49A126"/><rect x="66.667" y="33.268" width="33.333" height="33.333" fill="#49A126"/><rect x="33.333" y="66.732" width="33.333" height="33.333" fill="#49A126"/></svg></g><g transform="translate(396.25,&#10;                                176.11) rotate(180, 22.013968253968255, 22.013968253968255)"><svg xmlns="http://www.w3.org/2000/svg" id="Layer_1" data-name="Layer 1" viewBox="0 0 100 100" width="44.02793650793651" height="44.02793650793651"><polygon points="100 0 41.895 0 0 0 0 41.895 0 100 41.895 100 41.895 41.895 100 41.895 100 0" fill="#C4C720"/></svg></g><g transform="translate(440.28,&#10;                                176.11) rotate(90, 22.013968253968255, 22.013968253968255)"><svg xmlns="http://www.w3.org/2000/svg" id="Layer_1" data-name="Layer 1" viewBox="0 0 100 100" width="44.02793650793651" height="44.02793650793651"><path d="M100,100A100,100,0,0,0,0,0V100Z" fill="#F18701"/><path d="M50,100A50,50,0,0,0,0,50v50Z" fill="#6F674E"/></svg></g><g transform="translate(396.25,&#10;                                220.14) rotate(180, 22.013968253968255, 22.013968253968255)"><svg xmlns="http://www.w3.org/2000/svg" id="Layer_1" data-name="Layer 1" viewBox="0 0 100 100" width="44.02793650793651" height="44.02793650793651"><polygon points="100 0 41.895 0 0 0 0 41.895 0 100 41.895 100 41.895 41.895 100 41.895 100 0" fill="#C4C720"/></svg></g><g transform="translate(440.28,&#10;                                220.14) rotate(90, 22.013968253968255, 22.013968253968255)"><svg xmlns="http://www.w3.org/2000/svg" id="Layer_1" data-name="Layer 1" viewBox="0 0 100 100" width="44.02793650793651" height="44.02793650793651"><path d="M50,100a50,50,0,1,1,50-50v50Z" fill="#636367"/></svg></g><g transform="translate(528.34,&#10;                                132.08) rotate(180, 22.013968253968255, 22.013968253968255)"><svg xmlns="http://www.w3.org/2000/svg" id="Layer_1" data-name="Layer 1" viewBox="0 0 100 100" width="44.02793650793651" height="44.02793650793651"><polygon points="100 0 41.895 0 0 0 0 41.895 0 100 41.895 100 41.895 41.895 100 41.895 100 0" fill="#C4C720"/></svg></g><g transform="translate(572.36,&#10;                                132.08) rotate(90, 22.013968253968255, 22.013968253968255)"><svg xmlns="http://www.w3.org/2000/svg" id="Layer_1" data-name="Layer 1" viewBox="0 0 100 100" width="44.02793650793651" height="44.02793650793651"><path d="M100,100A50,50,0,0,0,0,100Z" fill="#577AFD"/></svg></g><g transform="translate(528.34,&#10;                                176.11) rotate(0, 22.013968253968255, 22.013968253968255)"><svg xmlns="http://www.w3.org/2000/svg" id="Layer_1" data-name="Layer 1" viewBox="0 0 100 100" width="44.02793650793651" height="44.02793650793651"><path d="M100,100A100,100,0,0,0,0,0V100Z" fill="#F18701"/><path d="M50,100A50,50,0,0,0,0,50v50Z" fill="#6F674E"/></svg></g><g transform="translate(572.36,&#10;                                176.11) rotate(270, 22.013968253968255, 22.013968253968255)"><svg xmlns="http://www.w3.org/2000/svg" id="Layer_1" data-name="Layer 1" viewBox="0 0 100 100" width="44.02793650793651" height="44.02793650793651"><path d="M100,100A100,100,0,0,0,0,0V100Z" fill="#F18701"/><path d="M50,100A50,50,0,0,0,0,50v50Z" fill="#6F674E"/></svg></g><g transform="translate(616.39,&#10;                                176.11) rotate(90, 22.013968253968255, 22.013968253968255)"><svg xmlns="http://www.w3.org/2000/svg" id="Layer_1" data-name="Layer 1" viewBox="0 0 100 100" width="44.02793650793651" height="44.02793650793651"><polygon points="50 50 25 0 0 50 50 50" fill="#D51FF5"/><polygon points="50 100 25 50 0 100 50 100" fill="#D51FF5"/><polygon points="100 50 75 0 50 50 100 50" fill="#D51FF5"/><polygon points="100 100 75 50 50 100 100 100" fill="#D51FF5"/></svg></g><g transform="translate(528.34,&#10;                                220.14) rotate(180, 22.013968253968255, 22.013968253968255)"><svg xmlns="http://www.w3.org/2000/svg" id="Layer_1" data-name="Layer 1" viewBox="0 0 100 100" width="44.02793650793651" height="44.02793650793651"><path d="M100,100A50,50,0,0,0,0,100Z" fill="#577AFD"/></svg></g><g transform="translate(572.36,&#10;                                220.14) rotate(180, 22.013968253968255, 22.013968253968255)"><svg xmlns="http://www.w3.org/2000/svg" id="Layer_1" data-name="Layer 1" viewBox="0 0 100 100" width="44.02793650793651" height="44.02793650793651"><path d="M100,100A50,50,0,0,0,0,100Z" fill="#F7B801"/></svg></g><g transform="translate(616.39,&#10;                                220.14) rotate(0, 22.013968253968255, 22.013968253968255)"><svg xmlns="http://www.w3.org/2000/svg" id="Layer_1" data-name="Layer 1" viewBox="0 0 100 100" width="44.02793650793651" height="44.02793650793651"><path d="M0,0V100H100V0ZM66.67,66.67H33.33V33.33H66.67Z" fill="#41EA22"/><rect x="33.333" y="-0.065" width="33.333" height="33.333" fill="#49A126"/><rect y="33.268" width="33.333" height="33.333" fill="#49A126"/><rect x="66.667" y="33.268" width="33.333" height="33.333" fill="#49A126"/><rect x="33.333" y="66.732" width="33.333" height="33.333" fill="#49A126"/></svg></g><g transform="translate(660.42,&#10;                                132.08) rotate(0, 22.013968253968255, 22.013968253968255)"><svg xmlns="http://www.w3.org/2000/svg" id="Layer_1" data-name="Layer 1" viewBox="0 0 100 100" width="44.02793650793651" height="44.02793650793651"><polygon points="100 0 41.895 0 0 0 0 41.895 0 100 41.895 100 41.895 41.895 100 41.895 100 0" fill="#C4C720"/></svg></g><g transform="translate(704.45,&#10;                                132.08) rotate(90, 22.013968253968255, 22.013968253968255)"><svg xmlns="http://www.w3.org/2000/svg" id="Layer_1" data-name="Layer 1" viewBox="0 0 100 100" width="44.02793650793651" height="44.02793650793651"><path d="M0,0V100H100V0ZM66.67,66.67H33.33V33.33H66.67Z" fill="#41EA22"/><rect x="33.333" y="-0.065" width="33.333" height="33.333" fill="#49A126"/><rect y="33.268" width="33.333" height="33.333" fill="#49A126"/><rect x="66.667" y="33.268" width="33.333" height="33.333" fill="#49A126"/><rect x="33.333" y="66.732" width="33.333" height="33.333" fill="#49A126"/></svg></g><g transform="translate(748.47,&#10;                                132.08) rotate(180, 22.013968253968255, 22.013968253968255)"><svg xmlns="http://www.w3.org/2000/svg" id="Layer_1" data-name="Layer 1" viewBox="0 0 100 100" width="44.02793650793651" height="44.02793650793651"><path d="M100,100A50,50,0,0,0,0,100Z" fill="#F7B801"/></svg></g><g transform="translate(660.42,&#10;                                176.11) rotate(0, 22.013968253968255, 22.013968253968255)"><svg xmlns="http://www.w3.org/2000/svg" id="Layer_1" data-name="Layer 1" viewBox="0 0 100 100" width="44.02793650793651" height="44.02793650793651"><path d="M100,100A100,100,0,0,0,0,0V100Z" fill="#F18701"/><path d="M50,100A50,50,0,0,0,0,50v50Z" fill="#6F674E"/></svg></g><g transform="translate(704.45,&#10;                                176.11) rotate(90, 22.013968253968255, 22.013968253968255)"><svg xmlns="http://www.w3.org/2000/svg" id="Layer_1" data-name="Layer 1" viewBox="0 0 100 100" width="44.02793650793651" height="44.02793650793651"><path d="M100,100A100,100,0,0,0,0,0V100Z" fill="#F18701"/><path d="M50,100A50,50,0,0,0,0,50v50Z" fill="#6F674E"/></svg></g><g transform="translate(748.47,&#10;                                176.11) rotate(0, 22.013968253968255, 22.013968253968255)"><svg xmlns="http://www.w3.org/2000/svg" id="Layer_1" data-name="Layer 1" viewBox="0 0 100 100" width="44.02793650793651" height="44.02793650793651"><polygon points="52.913 0 2.913 50 52.913 100 100 100 100 0 52.913 0" fill="#7415C9"/><polygon points="100 0 50 50 100 100 100 0" fill="#6256C1"/></svg></g><g transform="translate(660.42,&#10;                                220.14) rotate(90, 22.013968253968255, 22.013968253968255)"><svg xmlns="http://www.w3.org/2000/svg" id="Layer_1" data-name="Layer 1" viewBox="0 0 100 100" width="44.02793650793651" height="44.02793650793651"><path d="M0,0V100H100V0ZM66.67,66.67H33.33V33.33H66.67Z" fill="#41EA22"/><rect x="33.333" y="-0.065" width="33.333" height="33.333" fill="#49A126"/><rect y="33.268" width="33.333" height="33.333" fill="#49A126"/><rect x="66.667" y="33.268" width="33.333" height="33.333" fill="#49A126"/><rect x="33.333" y="66.732" width="33.333" height="33.333" fill="#49A126"/></svg></g><g transform="translate(704.45,&#10;                                220.14) rotate(180, 22.013968253968255, 22.013968253968255)"><svg xmlns="http://www.w3.org/2000/svg" id="Layer_1" data-name="Layer 1" viewBox="0 0 100 100" width="44.02793650793651" height="44.02793650793651"><polyline points="75 50 100 75 100 25" fill="#CC7A5C"/><polyline points="50 75 25 100 75 100" fill="#CC7A5C"/><polyline points="50 25 75 0 25 0" fill="#CC7A5C"/><polyline points="25 50 0 25 0 75" fill="#CC7A5C"/></svg></g><g transform="translate(792.50,&#10;                                132.08) rotate(270, 22.013968253968255, 22.013968253968255)"><svg xmlns="http://www.w3.org/2000/svg" id="Layer_1" data-name="Layer 1" viewBox="0 0 100 100" width="44.02793650793651" height="44.02793650793651"><polygon points="100 0 41.895 0 0 0 0 41.895 0 100 41.895 100 41.895 41.895 100 41.895 100 0" fill="#C4C720"/></svg></g><g transform="translate(836.53,&#10;                                132.08) rotate(90, 22.013968253968255, 22.013968253968255)"><svg xmlns="http://www.w3.org/2000/svg" id="Layer_1" data-name="Layer 1" viewBox="0 0 100 100" width="44.02793650793651" height="44.02793650793651"><path d="M100,100A50,50,0,0,0,0,100Z" fill="#577AFD"/></svg></g><g transform="translate(880.56,&#10;                                132.08) rotate(270, 22.013968253968255, 22.013968253968255)"><svg xmlns="http://www.w3.org/2000/svg" id="Layer_1" data-name="Layer 1" viewBox="0 0 100 100" width="44.02793650793651" height="44.02793650793651"><polygon points="50 50 25 0 0 50 50 50" fill="#D51FF5"/><polygon points="50 100 25 50 0 100 50 100" fill="#D51FF5"/><polygon points="100 50 75 0 50 50 100 50" fill="#D51FF5"/><polygon points="100 100 75 50 50 100 100 100" fill="#D51FF5"/></svg></g><g transform="translate(792.50,&#10;                                176.11) rotate(180, 22.013968253968255, 22.013968253968255)"><svg xmlns="http://www.w3.org/2000/svg" id="Layer_1" data-name="Layer 1" viewBox="0 0 100 100" width="44.02793650793651" height="44.02793650793651"><polyline points="75 50 100 75 100 25" fill="#CC7A5C"/><polyline points="50 75 25 100 75 100" fill="#CC7A5C"/><polyline points="50 25 75 0 25 0" fill="#CC7A5C"/><polyline points="25 50 0 25 0 75" fill="#CC7A5C"/></svg></g><g transform="translate(836.53,&#10;                                176.11) rotate(0, 22.013968253968255, 22.013968253968255)"><svg xmlns="http://www.w3.org/2000/svg" id="Layer_1" data-name="Layer 1" viewBox="0 0 100 100" width="44.02793650793651" height="44.02793650793651"><path d="M100,100A50,50,0,0,0,0,100Z" fill="#F7B801"/></svg></g><g transform="translate(880.56,&#10;                                176.11) rotate(90, 22.013968253968255, 22.013968253968255)"><svg xmlns="http://www.w3.org/2000/svg" id="Layer_1" data-name="Layer 1" viewBox="0 0 100 100" width="44.02793650793651" height="44.02793650793651"><polygon points="52.913 0 2.913 50 52.913 100 100 100 100 0 52.913 0" fill="#7415C9"/><polygon points="100 0 50 50 100 100 100 0" fill="#6256C1"/></svg></g><g transform="translate(792.50,&#10;                                220.14) rotate(0, 22.013968253968255, 22.013968253968255)"><svg xmlns="http://www.w3.org/2000/svg" id="Layer_1" data-name="Layer 1" viewBox="0 0 100 100" width="44.02793650793651" height="44.02793650793651"><path d="M100,100A50,50,0,0,0,0,100Z" fill="#577AFD"/></svg></g><g transform="translate(836.53,&#10;                                220.14) rotate(180, 22.013968253968255, 22.013968253968255)"><svg xmlns="http://www.w3.org/2000/svg" id="Layer_1" data-name="Layer 1" viewBox="0 0 100 100" width="44.02793650793651" height="44.02793650793651"><path d="M100,100A50,50,0,0,0,0,100Z" fill="#F7B801"/></svg></g><g transform="translate(880.56,&#10;                                220.14) rotate(180, 22.013968253968255, 22.013968253968255)"><svg xmlns="http://www.w3.org/2000/svg" id="Layer_1" data-name="Layer 1" viewBox="0 0 100 100" width="44.02793650793651" height="44.02793650793651"><path d="M50,100a50,50,0,1,1,50-50v50Z" fill="#636367"/></svg></g></g><g><g transform="translate(0.00,&#10;                                264.17) rotate(270, 22.013968253968255, 22.013968253968255)"><svg xmlns="http://www.w3.org/2000/svg" id="Layer_1" data-name="Layer 1" viewBox="0 0 100 100" width="44.02793650793651" height="44.02793650793651"><polygon points="100 0 41.895 0 0 0 0 41.895 0 100 41.895 100 41.895 41.895 100 41.895 100 0" fill="#C4C720"/></svg></g><g transform="translate(0.00,&#10;                                308.20) rotate(90, 22.013968253968255, 22.013968253968255)"><svg xmlns="http://www.w3.org/2000/svg" id="Layer_1" data-name="Layer 1" viewBox="0 0 100 100" width="44.02793650793651" height="44.02793650793651"><path d="M100,100A50,50,0,0,0,0,100Z" fill="#577AFD"/></svg></g><g transform="translate(44.03,&#10;                                308.20) rotate(90, 22.013968253968255, 22.013968253968255)"><svg xmlns="http://www.w3.org/2000/svg" id="Layer_1" data-name="Layer 1" viewBox="0 0 100 100" width="44.02793650793651" height="44.02793650793651"><path d="M100,100A50,50,0,0,0,0,100Z" fill="#F7B801"/></svg></g><g transform="translate(88.06,&#10;                                308.20) rotate(0, 22.013968253968255, 22.013968253968255)"><svg xmlns="http://www.w3.org/2000/svg" id="Layer_1" data-name="Layer 1" viewBox="0 0 100 100" width="44.02793650793651" height="44.02793650793651"><polygon points="50 50 25 0 0 50 50 50" fill="#D51FF5"/><polygon points="50 100 25 50 0 100 50 100" fill="#D51FF5"/><polygon points="100 50 75 0 50 50 100 50" fill="#D51FF5"/><polygon points="100 100 75 50 50 100 100 100" fill="#D51FF5"/></svg></g><g transform="translate(0.00,&#10;                                352.22) rotate(270, 22.013968253968255, 22.013968253968255)"><svg xmlns="http://www.w3.org/2000/svg" id="Layer_1" data-name="Layer 1" viewBox="0 0 100 100" width="44.02793650793651" height="44.02793650793651"><path d="M0,0V100H100V0ZM66.67,66.67H33.33V33.33H66.67Z" fill="#41EA22"/><rect x="33.333" y="-0.065" width="33.333" height="33.333" fill="#49A126"/><rect y="33.268" width="33.333" height="33.333" fill="#49A126"/><rect x="66.667" y="33.268" width="33.333" height="33.333" fill="#49A126"/><rect x="33.333" y="66.732" width="33.333" height="33.333" fill="#49A126"/></svg></g><g transform="translate(44.03,&#10;                                352.22) rotate(0, 22.013968253968255, 22.013968253968255)"><svg xmlns="http://www.w3.org/2000/svg" id="Layer_1" data-name="Layer 1" viewBox="0 0 100 100" width="44.02793650793651" height="44.02793650793651"><path d="M50,100a50,50,0,1,1,50-50v50Z" fill="#636367"/></svg></g><g transform="translate(132.08,&#10;                                264.17) rotate(180, 22.013968253968255, 22.013968253968255)"><svg xmlns="http://www.w3.org/2000/svg" id="Layer_1" data-name="Layer 1" viewBox="0 0 100 100" width="44.02793650793651" height="44.02793650793651"><path d="M100,100A50,50,0,0,0,0,100Z" fill="#F7B801"/></svg></g><g transform="translate(220.14,&#10;                                264.17) rotate(90, 22.013968253968255, 22.013968253968255)"><svg xmlns="http://www.w3.org/2000/svg" id="Layer_1" data-name="Layer 1" viewBox="0 0 100 100" width="44.02793650793651" height="44.02793650793651"><polygon points="50 50 25 0 0 50 50 50" fill="#D51FF5"/><polygon points="50 100 25 50 0 100 50 100" fill="#D51FF5"/><polygon points="100 50 75 0 50 50 100 50" fill="#D51FF5"/><polygon points="100 100 75 50 50 100 100 100" fill="#D51FF5"/></svg></g><g transform="translate(132.08,&#10;                                308.20) rotate(270, 22.013968253968255, 22.013968253968255)"><svg xmlns="http://www.w3.org/2000/svg" id="Layer_1" data-name="Layer 1" viewBox="0 0 100 100" width="44.02793650793651" height="44.02793650793651"><path d="M50,100a50,50,0,1,1,50-50v50Z" fill="#636367"/></svg></g><g transform="translate(176.11,&#10;                                308.20) rotate(270, 22.013968253968255, 22.013968253968255)"><svg xmlns="http://www.w3.org/2000/svg" id="Layer_1" data-name="Layer 1" viewBox="0 0 100 100" width="44.02793650793651" height="44.02793650793651"><path d="M100,100A100,100,0,0,0,0,0V100Z" fill="#F18701"/><path d="M50,100A50,50,0,0,0,0,50v50Z" fill="#6F674E"/></svg></g><g transform="translate(220.14,&#10;                                308.20) rotate(90, 22.013968253968255, 22.013968253968255)"><svg xmlns="http://www.w3.org/2000/svg" id="Layer_1" data-name="Layer 1" viewBox="0 0 100 100" width="44.02793650793651" height="44.02793650793651"><path d="M100,100A50,50,0,0,0,0,100Z" fill="#F7B801"/></svg></g><g transform="translate(132.08,&#10;                                352.22) rotate(90, 22.013968253968255, 22.013968253968255)"><svg xmlns="http://www.w3.org/2000/svg" id="Layer_1" data-name="Layer 1" viewBox="0 0 100 100" width="44.02793650793651" height="44.02793650793651"><polyline points="75 50 100 75 100 25" fill="#CC7A5C"/><polyline points="50 75 25 100 75 100" fill="#CC7A5C"/><polyline points="50 25 75 0 25 0" fill="#CC7A5C"/><polyline points="25 50 0 25 0 75" fill="#CC7A5C"/></svg></g><g transform="translate(176.11,&#10;                                352.22) rotate(0, 22.013968253968255, 22.013968253968255)"><svg xmlns="http://www.w3.org/2000/svg" id="Layer_1" data-name="Layer 1" viewBox="0 0 100 100" width="44.02793650793651" height="44.02793650793651"><path d="M100,100A50,50,0,0,0,0,100Z" fill="#F7B801"/></svg></g><g transform="translate(220.14,&#10;                                352.22) rotate(180, 22.013968253968255, 22.013968253968255)"><svg xmlns="http://www.w3.org/2000/svg" id="Layer_1" data-name="Layer 1" viewBox="0 0 100 100" width="44.02793650793651" height="44.02793650793651"><path d="M100,100A50,50,0,0,0,0,100Z" fill="#577AFD"/></svg></g><g transform="translate(264.17,&#10;                                264.17) rotate(0, 22.013968253968255, 22.013968253968255)"><svg xmlns="http://www.w3.org/2000/svg" id="Layer_1" data-name="Layer 1" viewBox="0 0 100 100" width="44.02793650793651" height="44.02793650793651"><polyline points="75 50 100 75 100 25" fill="#CC7A5C"/><polyline points="50 75 25 100 75 100" fill="#CC7A5C"/><polyline points="50 25 75 0 25 0" fill="#CC7A5C"/><polyline points="25 50 0 25 0 75" fill="#CC7A5C"/></svg></g><g transform="translate(352.22,&#10;                                264.17) rotate(180, 22.013968253968255, 22.013968253968255)"><svg xmlns="http://www.w3.org/2000/svg" id="Layer_1" data-name="Layer 1" viewBox="0 0 100 100" width="44.02793650793651" height="44.02793650793651"><polyline points="75 50 100 75 100 25" fill="#CC7A5C"/><polyline points="50 75 25 100 75 100" fill="#CC7A5C"/><polyline points="50 25 75 0 25 0" fill="#CC7A5C"/><polyline points="25 50 0 25 0 75" fill="#CC7A5C"/></svg></g><g transform="translate(264.17,&#10;                                308.20) rotate(0, 22.013968253968255, 22.013968253968255)"><svg xmlns="http://www.w3.org/2000/svg" id="Layer_1" data-name="Layer 1" viewBox="0 0 100 100" width="44.02793650793651" height="44.02793650793651"><path d="M100,100A100,100,0,0,0,0,0V100Z" fill="#F18701"/><path d="M50,100A50,50,0,0,0,0,50v50Z" fill="#6F674E"/></svg></g><g transform="translate(308.20,&#10;                                308.20) rotate(270, 22.013968253968255, 22.013968253968255)"><svg xmlns="http://www.w3.org/2000/svg" id="Layer_1" data-name="Layer 1" viewBox="0 0 100 100" width="44.02793650793651" height="44.02793650793651"><path d="M50,100a50,50,0,1,1,50-50v50Z" fill="#636367"/></svg></g><g transform="translate(352.22,&#10;                                308.20) rotate(270, 22.013968253968255, 22.013968253968255)"><svg xmlns="http://www.w3.org/2000/svg" id="Layer_1" data-name="Layer 1" viewBox="0 0 100 100" width="44.02793650793651" height="44.02793650793651"><polygon points="52.913 0 2.913 50 52.913 100 100 100 100 0 52.913 0" fill="#7415C9"/><polygon points="100 0 50 50 100 100 100 0" fill="#6256C1"/></svg></g><g transform="translate(264.17,&#10;                                352.22) rotate(0, 22.013968253968255, 22.013968253968255)"><svg xmlns="http://www.w3.org/2000/svg" id="Layer_1" data-name="Layer 1" viewBox="0 0 100 100" width="44.02793650793651" height="44.02793650793651"><path d="M0,0V100H100V0ZM66.67,66.67H33.33V33.33H66.67Z" fill="#41EA22"/><rect x="33.333" y="-0.065" width="33.333" height="33.333" fill="#49A126"/><rect y="33.268" width="33.333" height="33.333" fill="#49A126"/><rect x="66.667" y="33.268" width="33.333" height="33.333" fill="#49A126"/><rect x="33.333" y="66.732" width="33.333" height="33.333" fill="#49A126"/></svg></g><g transform="translate(308.20,&#10;                                352.22) rotate(0, 22.013968253968255, 22.013968253968255)"><svg xmlns="http://www.w3.org/2000/svg" id="Layer_1" data-name="Layer 1" viewBox="0 0 100 100" width="44.02793650793651" height="44.02793650793651"><path d="M100,100A100,100,0,0,0,0,0V100Z" fill="#F18701"/><path d="M50,100A50,50,0,0,0,0,50v50Z" fill="#6F674E"/></svg></g><g transform="translate(396.25,&#10;                                264.17) rotate(180, 22.013968253968255, 22.013968253968255)"><svg xmlns="http://www.w3.org/2000/svg" id="Layer_1" data-name="Layer 1" viewBox="0 0 100 100" width="44.02793650793651" height="44.02793650793651"><polygon points="100 0 41.895 0 0 0 0 41.895 0 100 41.895 100 41.895 41.895 100 41.895 100 0" fill="#C4C720"/></svg></g><g transform="translate(396.25,&#10;                                308.20) rotate(270, 22.013968253968255, 22.013968253968255)"><svg xmlns="http://www.w3.org/2000/svg" id="Layer_1" data-name="Layer 1" viewBox="0 0 100 100" width="44.02793650793651" height="44.02793650793651"><polyline points="75 50 100 75 100 25" fill="#CC7A5C"/><polyline points="50 75 25 100 75 100" fill="#CC7A5C"/><polyline points="50 25 75 0 25 0" fill="#CC7A5C"/><polyline points="25 50 0 25 0 75" fill="#CC7A5C"/></svg></g><g transform="translate(440.28,&#10;                                308.20) rotate(270, 22.013968253968255, 22.013968253968255)"><svg xmlns="http://www.w3.org/2000/svg" id="Layer_1" data-name="Layer 1" viewBox="0 0 100 100" width="44.02793650793651" height="44.02793650793651"><polygon points="52.913 0 2.913 50 52.913 100 100 100 100 0 52.913 0" fill="#7415C9"/><polygon points="100 0 50 50 100 100 100 0" fill="#6256C1"/></svg></g><g transform="translate(484.31,&#10;                                308.20) rotate(0, 22.013968253968255, 22.013968253968255)"><svg xmlns="http://www.w3.org/2000/svg" id="Layer_1" data-name="Layer 1" viewBox="0 0 100 100" width="44.02793650793651" height="44.02793650793651"><polygon points="52.913 0 2.913 50 52.913 100 100 100 100 0 52.913 0" fill="#7415C9"/><polygon points="100 0 50 50 100 100 100 0" fill="#6256C1"/></svg></g><g transform="translate(396.25,&#10;                                352.22) rotate(180, 22.013968253968255, 22.013968253968255)"><svg xmlns="http://www.w3.org/2000/svg" id="Layer_1" data-name="Layer 1" viewBox="0 0 100 100" width="44.02793650793651" height="44.02793650793651"><path d="M100,100A50,50,0,0,0,0,100Z" fill="#577AFD"/></svg></g><g transform="translate(440.28,&#10;                                352.22) rotate(0, 22.013968253968255, 22.013968253968255)"><svg xmlns="http://www.w3.org/2000/svg" id="Layer_1" data-name="Layer 1" viewBox="0 0 100 100" width="44.02793650793651" height="44.02793650793651"><path d="M100,100A50,50,0,0,0,0,100Z" fill="#F7B801"/></svg></g><g transform="translate(484.31,&#10;                                352.22) rotate(180, 22.013968253968255, 22.013968253968255)"><svg xmlns="http://www.w3.org/2000/svg" id="Layer_1" data-name="Layer 1" viewBox="0 0 100 100" width="44.02793650793651" height="44.02793650793651"><path d="M0,0V100H100V0ZM66.67,66.67H33.33V33.33H66.67Z" fill="#41EA22"/><rect x="33.333" y="-0.065" width="33.333" height="33.333" fill="#49A126"/><rect y="33.268" width="33.333" height="33.333" fill="#49A126"/><rect x="66.667" y="33.268" width="33.333" height="33.333" fill="#49A126"/><rect x="33.333" y="66.732" width="33.333" height="33.333" fill="#49A126"/></svg></g><g transform="translate(528.34,&#10;                                264.17) rotate(90, 22.013968253968255, 22.013968253968255)"><svg xmlns="http://www.w3.org/2000/svg" id="Layer_1" data-name="Layer 1" viewBox="0 0 100 100" width="44.02793650793651" height="44.02793650793651"><polygon points="50 50 25 0 0 50 50 50" fill="#D51FF5"/><polygon points="50 100 25 50 0 100 50 100" fill="#D51FF5"/><polygon points="100 50 75 0 50 50 100 50" fill="#D51FF5"/><polygon points="100 100 75 50 50 100 100 100" fill="#D51FF5"/></svg></g><g transform="translate(616.39,&#10;                                264.17) rotate(180, 22.013968253968255, 22.013968253968255)"><svg xmlns="http://www.w3.org/2000/svg" id="Layer_1" data-name="Layer 1" viewBox="0 0 100 100" width="44.02793650793651" height="44.02793650793651"><polygon points="50 50 25 0 0 50 50 50" fill="#D51FF5"/><polygon points="50 100 25 50 0 100 50 100" fill="#D51FF5"/><polygon points="100 50 75 0 50 50 100 50" fill="#D51FF5"/><polygon points="100 100 75 50 50 100 100 100" fill="#D51FF5"/></svg></g><g transform="translate(528.34,&#10;                                308.20) rotate(180, 22.013968253968255, 22.013968253968255)"><svg xmlns="http://www.w3.org/2000/svg" id="Layer_1" data-name="Layer 1" viewBox="0 0 100 100" width="44.02793650793651" height="44.02793650793651"><polygon points="100 0 41.895 0 0 0 0 41.895 0 100 41.895 100 41.895 41.895 100 41.895 100 0" fill="#C4C720"/></svg></g><g transform="translate(572.36,&#10;                                308.20) rotate(0, 22.013968253968255, 22.013968253968255)"><svg xmlns="http://www.w3.org/2000/svg" id="Layer_1" data-name="Layer 1" viewBox="0 0 100 100" width="44.02793650793651" height="44.02793650793651"><polygon points="52.913 0 2.913 50 52.913 100 100 100 100 0 52.913 0" fill="#7415C9"/><polygon points="100 0 50 50 100 100 100 0" fill="#6256C1"/></svg></g><g transform="translate(616.39,&#10;                                308.20) rotate(180, 22.013968253968255, 22.013968253968255)"><svg xmlns="http://www.w3.org/2000/svg" id="Layer_1" data-name="Layer 1" viewBox="0 0 100 100" width="44.02793650793651" height="44.02793650793651"><polygon points="50 50 25 0 0 50 50 50" fill="#D51FF5"/><polygon points="50 100 25 50 0 100 50 100" fill="#D51FF5"/><polygon points="100 50 75 0 50 50 100 50" fill="#D51FF5"/><polygon points="100 100 75 50 50 100 100 100" fill="#D51FF5"/></svg></g><g transform="translate(528.34,&#10;                                352.22) rotate(180, 22.013968253968255, 22.013968253968255)"><svg xmlns="http://www.w3.org/2000/svg" id="Layer_1" data-name="Layer 1" viewBox="0 0 100 100" width="44.02793650793651" height="44.02793650793651"><path d="M100,100A50,50,0,0,0,0,100Z" fill="#577AFD"/></svg></g><g transform="translate(572.36,&#10;                                352.22) rotate(0, 22.013968253968255, 22.013968253968255)"><svg xmlns="http://www.w3.org/2000/svg" id="Layer_1" data-name="Layer 1" viewBox="0 0 100 100" width="44.02793650793651" height="44.02793650793651"><path d="M50,100a50,50,0,1,1,50-50v50Z" fill="#636367"/></svg></g><g transform="translate(660.42,&#10;                                264.17) rotate(270, 22.013968253968255, 22.013968253968255)"><svg xmlns="http://www.w3.org/2000/svg" id="Layer_1" data-name="Layer 1" viewBox="0 0 100 100" width="44.02793650793651" height="44.02793650793651"><polyline points="75 50 100 75 100 25" fill="#CC7A5C"/><polyline points="50 75 25 100 75 100" fill="#CC7A5C"/><polyline points="50 25 75 0 25 0" fill="#CC7A5C"/><polyline points="25 50 0 25 0 75" fill="#CC7A5C"/></svg></g><g transform="translate(704.45,&#10;                                264.17) rotate(270, 22.013968253968255, 22.013968253968255)"><svg xmlns="http://www.w3.org/2000/svg" id="Layer_1" data-name="Layer 1" viewBox="0 0 100 100" width="44.02793650793651" height="44.02793650793651"><path d="M0,0V100H100V0ZM66.67,66.67H33.33V33.33H66.67Z" fill="#41EA22"/><rect x="33.333" y="-0.065" width="33.333" height="33.333" fill="#49A126"/><rect y="33.268" width="33.333" height="33.333" fill="#49A126"/><rect x="66.667" y="33.268" width="33.333" height="33.333" fill="#49A126"/><rect x="33.333" y="66.732" width="33.333" height="33.333" fill="#49A126"/></svg></g><g transform="translate(748.47,&#10;                                264.17) rotate(270, 22.013968253968255, 22.013968253968255)"><svg xmlns="http://www.w3.org/2000/svg" id="Layer_1" data-name="Layer 1" viewBox="0 0 100 100" width="44.02793650793651" height="44.02793650793651"><path d="M100,100A50,50,0,0,0,0,100Z" fill="#F7B801"/></svg></g><g transform="translate(660.42,&#10;                                308.20) rotate(270, 22.013968253968255, 22.013968253968255)"><svg xmlns="http://www.w3.org/2000/svg" id="Layer_1" data-name="Layer 1" viewBox="0 0 100 100" width="44.02793650793651" height="44.02793650793651"><polygon points="100 0 41.895 0 0 0 0 41.895 0 100 41.895 100 41.895 41.895 100 41.895 100 0" fill="#C4C720"/></svg></g><g transform="translate(704.45,&#10;                                308.20) rotate(180, 22.013968253968255, 22.013968253968255)"><svg xmlns="http://www.w3.org/2000/svg" id="Layer_1" data-name="Layer 1" viewBox="0 0 100 100" width="44.02793650793651" height="44.02793650793651"><path d="M100,100A50,50,0,0,0,0,100Z" fill="#577AFD"/></svg></g><g transform="translate(748.47,&#10;                                308.20) rotate(0, 22.013968253968255, 22.013968253968255)"><svg xmlns="http://www.w3.org/2000/svg" id="Layer_1" data-name="Layer 1" viewBox="0 0 100 100" width="44.02793650793651" height="44.02793650793651"><polygon points="52.913 0 2.913 50 52.913 100 100 100 100 0 52.913 0" fill="#7415C9"/><polygon points="100 0 50 50 100 100 100 0" fill="#6256C1"/></svg></g><g transform="translate(660.42,&#10;                                352.22) rotate(180, 22.013968253968255, 22.013968253968255)"><svg xmlns="http://www.w3.org/2000/svg" id="Layer_1" data-name="Layer 1" viewBox="0 0 100 100" width="44.02793650793651" height="44.02793650793651"><polygon points="100 0 41.895 0 0 0 0 41.895 0 100 41.895 100 41.895 41.895 100 41.895 100 0" fill="#C4C720"/></svg></g><g transform="translate(704.45,&#10;                                352.22) rotate(90, 22.013968253968255, 22.013968253968255)"><svg xmlns="http://www.w3.org/2000/svg" id="Layer_1" data-name="Layer 1" viewBox="0 0 100 100" width="44.02793650793651" height="44.02793650793651"><polygon points="52.913 0 2.913 50 52.913 100 100 100 100 0 52.913 0" fill="#7415C9"/><polygon points="100 0 50 50 100 100 100 0" fill="#6256C1"/></svg></g><g transform="translate(792.50,&#10;                                264.17) rotate(270, 22.013968253968255, 22.013968253968255)"><svg xmlns="http://www.w3.org/2000/svg" id="Layer_1" data-name="Layer 1" viewBox="0 0 100 100" width="44.02793650793651" height="44.02793650793651"><polygon points="100 0 41.895 0 0 0 0 41.895 0 100 41.895 100 41.895 41.895 100 41.895 100 0" fill="#C4C720"/></svg></g><g transform="translate(836.53,&#10;                                264.17) rotate(0, 22.013968253968255, 22.013968253968255)"><svg xmlns="http://www.w3.org/2000/svg" id="Layer_1" data-name="Layer 1" viewBox="0 0 100 100" width="44.02793650793651" height="44.02793650793651"><path d="M100,100A50,50,0,0,0,0,100Z" fill="#577AFD"/></svg></g><g transform="translate(880.56,&#10;                                264.17) rotate(270, 22.013968253968255, 22.013968253968255)"><svg xmlns="http://www.w3.org/2000/svg" id="Layer_1" data-name="Layer 1" viewBox="0 0 100 100" width="44.02793650793651" height="44.02793650793651"><polyline points="75 50 100 75 100 25" fill="#CC7A5C"/><polyline points="50 75 25 100 75 100" fill="#CC7A5C"/><polyline points="50 25 75 0 25 0" fill="#CC7A5C"/><polyline points="25 50 0 25 0 75" fill="#CC7A5C"/></svg></g><g transform="translate(792.50,&#10;                                308.20) rotate(90, 22.013968253968255, 22.013968253968255)"><svg xmlns="http://www.w3.org/2000/svg" id="Layer_1" data-name="Layer 1" viewBox="0 0 100 100" width="44.02793650793651" height="44.02793650793651"><polygon points="100 0 41.895 0 0 0 0 41.895 0 100 41.895 100 41.895 41.895 100 41.895 100 0" fill="#C4C720"/></svg></g><g transform="translate(836.53,&#10;                                308.20) rotate(180, 22.013968253968255, 22.013968253968255)"><svg xmlns="http://www.w3.org/2000/svg" id="Layer_1" data-name="Layer 1" viewBox="0 0 100 100" width="44.02793650793651" height="44.02793650793651"><path d="M100,100A100,100,0,0,0,0,0V100Z" fill="#F18701"/><path d="M50,100A50,50,0,0,0,0,50v50Z" fill="#6F674E"/></svg></g><g transform="translate(880.56,&#10;                                308.20) rotate(180, 22.013968253968255, 22.013968253968255)"><svg xmlns="http://www.w3.org/2000/svg" id="Layer_1" data-name="Layer 1" viewBox="0 0 100 100" width="44.02793650793651" height="44.02793650793651"><polygon points="50 50 25 0 0 50 50 50" fill="#D51FF5"/><polygon points="50 100 25 50 0 100 50 100" fill="#D51FF5"/><polygon points="100 50 75 0 50 50 100 50" fill="#D51FF5"/><polygon points="100 100 75 50 50 100 100 100" fill="#D51FF5"/></svg></g><g transform="translate(792.50,&#10;                                352.22) rotate(270, 22.013968253968255, 22.013968253968255)"><svg xmlns="http://www.w3.org/2000/svg" id="Layer_1" data-name="Layer 1" viewBox="0 0 100 100" width="44.02793650793651" height="44.02793650793651"><polygon points="100 0 41.895 0 0 0 0 41.895 0 100 41.895 100 41.895 41.895 100 41.895 100 0" fill="#C4C720"/></svg></g><g transform="translate(836.53,&#10;                                352.22) rotate(0, 22.013968253968255, 22.013968253968255)"><svg xmlns="http://www.w3.org/2000/svg" id="Layer_1" data-name="Layer 1" viewBox="0 0 100 100" width="44.02793650793651" height="44.02793650793651"><polygon points="52.913 0 2.913 50 52.913 100 100 100 100 0 52.913 0" fill="#7415C9"/><polygon points="100 0 50 50 100 100 100 0" fill="#6256C1"/></svg></g></g><g><g transform="translate(0.00,&#10;                                396.25) rotate(90, 22.013968253968255, 22.013968253968255)"><svg xmlns="http://www.w3.org/2000/svg" id="Layer_1" data-name="Layer 1" viewBox="0 0 100 100" width="44.02793650793651" height="44.02793650793651"><polyline points="75 50 100 75 100 25" fill="#CC7A5C"/><polyline points="50 75 25 100 75 100" fill="#CC7A5C"/><polyline points="50 25 75 0 25 0" fill="#CC7A5C"/><polyline points="25 50 0 25 0 75" fill="#CC7A5C"/></svg></g><g transform="translate(44.03,&#10;                                396.25) rotate(180, 22.013968253968255, 22.013968253968255)"><svg xmlns="http://www.w3.org/2000/svg" id="Layer_1" data-name="Layer 1" viewBox="0 0 100 100" width="44.02793650793651" height="44.02793650793651"><polygon points="52.913 0 2.913 50 52.913 100 100 100 100 0 52.913 0" fill="#7415C9"/><polygon points="100 0 50 50 100 100 100 0" fill="#6256C1"/></svg></g><g transform="translate(0.00,&#10;                                440.28) rotate(90, 22.013968253968255, 22.013968253968255)"><svg xmlns="http://www.w3.org/2000/svg" id="Layer_1" data-name="Layer 1" viewBox="0 0 100 100" width="44.02793650793651" height="44.02793650793651"><polygon points="100 0 41.895 0 0 0 0 41.895 0 100 41.895 100 41.895 41.895 100 41.895 100 0" fill="#C4C720"/></svg></g><g transform="translate(44.03,&#10;                                440.28) rotate(270, 22.013968253968255, 22.013968253968255)"><svg xmlns="http://www.w3.org/2000/svg" id="Layer_1" data-name="Layer 1" viewBox="0 0 100 100" width="44.02793650793651" height="44.02793650793651"><path d="M100,100A100,100,0,0,0,0,0V100Z" fill="#F18701"/><path d="M50,100A50,50,0,0,0,0,50v50Z" fill="#6F674E"/></svg></g><g transform="translate(88.06,&#10;                                440.28) rotate(180, 22.013968253968255, 22.013968253968255)"><svg xmlns="http://www.w3.org/2000/svg" id="Layer_1" data-name="Layer 1" viewBox="0 0 100 100" width="44.02793650793651" height="44.02793650793651"><polygon points="52.913 0 2.913 50 52.913 100 100 100 100 0 52.913 0" fill="#7415C9"/><polygon points="100 0 50 50 100 100 100 0" fill="#6256C1"/></svg></g><g transform="translate(0.00,&#10;                                484.31) rotate(90, 22.013968253968255, 22.013968253968255)"><svg xmlns="http://www.w3.org/2000/svg" id="Layer_1" data-name="Layer 1" viewBox="0 0 100 100" width="44.02793650793651" height="44.02793650793651"><path d="M0,0V100H100V0ZM66.67,66.67H33.33V33.33H66.67Z" fill="#41EA22"/><rect x="33.333" y="-0.065" width="33.333" height="33.333" fill="#49A126"/><rect y="33.268" width="33.333" height="33.333" fill="#49A126"/><rect x="66.667" y="33.268" width="33.333" height="33.333" fill="#49A126"/><rect x="33.333" y="66.732" width="33.333" height="33.333" fill="#49A126"/></svg></g><g transform="translate(44.03,&#10;                                484.31) rotate(270, 22.013968253968255, 22.013968253968255)"><svg xmlns="http://www.w3.org/2000/svg" id="Layer_1" data-name="Layer 1" viewBox="0 0 100 100" width="44.02793650793651" height="44.02793650793651"><polygon points="52.913 0 2.913 50 52.913 100 100 100 100 0 52.913 0" fill="#7415C9"/><polygon points="100 0 50 50 100 100 100 0" fill="#6256C1"/></svg></g><g transform="translate(132.08,&#10;                                396.25) rotate(180, 22.013968253968255, 22.013968253968255)"><svg xmlns="http://www.w3.org/2000/svg" id="Layer_1" data-name="Layer 1" viewBox="0 0 100 100" width="44.02793650793651" height="44.02793650793651"><polyline points="75 50 100 75 100 25" fill="#CC7A5C"/><polyline points="50 75 25 100 75 100" fill="#CC7A5C"/><polyline points="50 25 75 0 25 0" fill="#CC7A5C"/><polyline points="25 50 0 25 0 75" fill="#CC7A5C"/></svg></g><g transform="translate(176.11,&#10;                                396.25) rotate(90, 22.013968253968255, 22.013968253968255)"><svg xmlns="http://www.w3.org/2000/svg" id="Layer_1" data-name="Layer 1" viewBox="0 0 100 100" width="44.02793650793651" height="44.02793650793651"><polygon points="52.913 0 2.913 50 52.913 100 100 100 100 0 52.913 0" fill="#7415C9"/><polygon points="100 0 50 50 100 100 100 0" fill="#6256C1"/></svg></g><g transform="translate(132.08,&#10;                                440.28) rotate(180, 22.013968253968255, 22.013968253968255)"><svg xmlns="http://www.w3.org/2000/svg" id="Layer_1" data-name="Layer 1" viewBox="0 0 100 100" width="44.02793650793651" height="44.02793650793651"><polygon points="100 0 41.895 0 0 0 0 41.895 0 100 41.895 100 41.895 41.895 100 41.895 100 0" fill="#C4C720"/></svg></g><g transform="translate(176.11,&#10;                                440.28) rotate(270, 22.013968253968255, 22.013968253968255)"><svg xmlns="http://www.w3.org/2000/svg" id="Layer_1" data-name="Layer 1" viewBox="0 0 100 100" width="44.02793650793651" height="44.02793650793651"><path d="M100,100A50,50,0,0,0,0,100Z" fill="#577AFD"/></svg></g><g transform="translate(220.14,&#10;                                440.28) rotate(90, 22.013968253968255, 22.013968253968255)"><svg xmlns="http://www.w3.org/2000/svg" id="Layer_1" data-name="Layer 1" viewBox="0 0 100 100" width="44.02793650793651" height="44.02793650793651"><polygon points="50 50 25 0 0 50 50 50" fill="#D51FF5"/><polygon points="50 100 25 50 0 100 50 100" fill="#D51FF5"/><polygon points="100 50 75 0 50 50 100 50" fill="#D51FF5"/><polygon points="100 100 75 50 50 100 100 100" fill="#D51FF5"/></svg></g><g transform="translate(132.08,&#10;                                484.31) rotate(180, 22.013968253968255, 22.013968253968255)"><svg xmlns="http://www.w3.org/2000/svg" id="Layer_1" data-name="Layer 1" viewBox="0 0 100 100" width="44.02793650793651" height="44.02793650793651"><path d="M0,0V100H100V0ZM66.67,66.67H33.33V33.33H66.67Z" fill="#41EA22"/><rect x="33.333" y="-0.065" width="33.333" height="33.333" fill="#49A126"/><rect y="33.268" width="33.333" height="33.333" fill="#49A126"/><rect x="66.667" y="33.268" width="33.333" height="33.333" fill="#49A126"/><rect x="33.333" y="66.732" width="33.333" height="33.333" fill="#49A126"/></svg></g><g transform="translate(176.11,&#10;                                484.31) rotate(90, 22.013968253968255, 22.013968253968255)"><svg xmlns="http://www.w3.org/2000/svg" id="Layer_1" data-name="Layer 1" viewBox="0 0 100 100" width="44.02793650793651" height="44.02793650793651"><path d="M100,100A100,100,0,0,0,0,0V100Z" fill="#F18701"/><path d="M50,100A50,50,0,0,0,0,50v50Z" fill="#6F674E"/></svg></g><g transform="translate(220.14,&#10;                                484.31) rotate(180, 22.013968253968255, 22.013968253968255)"><svg xmlns="http://www.w3.org/2000/svg" id="Layer_1" data-name="Layer 1" viewBox="0 0 100 100" width="44.02793650793651" height="44.02793650793651"><path d="M0,0V100H100V0ZM66.67,66.67H33.33V33.33H66.67Z" fill="#41EA22"/><rect x="33.333" y="-0.065" width="33.333" height="33.333" fill="#49A126"/><rect y="33.268" width="33.333" height="33.333" fill="#49A126"/><rect x="66.667" y="33.268" width="33.333" height="33.333" fill="#49A126"/><rect x="33.333" y="66.732" width="33.333" height="33.333" fill="#49A126"/></svg></g><g transform="translate(264.17,&#10;                                396.25) rotate(270, 22.013968253968255, 22.013968253968255)"><svg xmlns="http://www.w3.org/2000/svg" id="Layer_1" data-name="Layer 1" viewBox="0 0 100 100" width="44.02793650793651" height="44.02793650793651"><polygon points="50 50 25 0 0 50 50 50" fill="#D51FF5"/><polygon points="50 100 25 50 0 100 50 100" fill="#D51FF5"/><polygon points="100 50 75 0 50 50 100 50" fill="#D51FF5"/><polygon points="100 100 75 50 50 100 100 100" fill="#D51FF5"/></svg></g><g transform="translate(308.20,&#10;                                396.25) rotate(270, 22.013968253968255, 22.013968253968255)"><svg xmlns="http://www.w3.org/2000/svg" id="Layer_1" data-name="Layer 1" viewBox="0 0 100 100" width="44.02793650793651" height="44.02793650793651"><path d="M100,100A50,50,0,0,0,0,100Z" fill="#577AFD"/></svg></g><g transform="translate(264.17,&#10;                                440.28) rotate(270, 22.013968253968255, 22.013968253968255)"><svg xmlns="http://www.w3.org/2000/svg" id="Layer_1" data-name="Layer 1" viewBox="0 0 100 100" width="44.02793650793651" height="44.02793650793651"><polyline points="75 50 100 75 100 25" fill="#CC7A5C"/><polyline points="50 75 25 100 75 100" fill="#CC7A5C"/><polyline points="50 25 75 0 25 0" fill="#CC7A5C"/><polyline points="25 50 0 25 0 75" fill="#CC7A5C"/></svg></g><g transform="translate(308.20,&#10;                                440.28) rotate(90, 22.013968253968255, 22.013968253968255)"><svg xmlns="http://www.w3.org/2000/svg" id="Layer_1" data-name="Layer 1" viewBox="0 0 100 100" width="44.02793650793651" height="44.02793650793651"><path d="M50,100a50,50,0,1,1,50-50v50Z" fill="#636367"/></svg></g><g transform="translate(352.22,&#10;                                440.28) rotate(270, 22.013968253968255, 22.013968253968255)"><svg xmlns="http://www.w3.org/2000/svg" id="Layer_1" data-name="Layer 1" viewBox="0 0 100 100" width="44.02793650793651" height="44.02793650793651"><polygon points="50 50 25 0 0 50 50 50" fill="#D51FF5"/><polygon points="50 100 25 50 0 100 50 100" fill="#D51FF5"/><polygon points="100 50 75 0 50 50 100 50" fill="#D51FF5"/><polygon points="100 100 75 50 50 100 100 100" fill="#D51FF5"/></svg></g><g transform="translate(264.17,&#10;                                484.31) rotate(0, 22.013968253968255, 22.013968253968255)"><svg xmlns="http://www.w3.org/2000/svg" id="Layer_1" data-name="Layer 1" viewBox="0 0 100 100" width="44.02793650793651" height="44.02793650793651"><path d="M100,100A50,50,0,0,0,0,100Z" fill="#577AFD"/></svg></g><g transform="translate(308.20,&#10;                                484.31) rotate(0, 22.013968253968255, 22.013968253968255)"><svg xmlns="http://www.w3.org/2000/svg" id="Layer_1" data-name="Layer 1" viewBox="0 0 100 100" width="44.02793650793651" height="44.02793650793651"><path d="M100,100A50,50,0,0,0,0,100Z" fill="#F7B801"/></svg></g><g transform="translate(352.22,&#10;                                484.31) rotate(90, 22.013968253968255, 22.013968253968255)"><svg xmlns="http://www.w3.org/2000/svg" id="Layer_1" data-name="Layer 1" viewBox="0 0 100 100" width="44.02793650793651" height="44.02793650793651"><path d="M0,0V100H100V0ZM66.67,66.67H33.33V33.33H66.67Z" fill="#41EA22"/><rect x="33.333" y="-0.065" width="33.333" height="33.333" fill="#49A126"/><rect y="33.268" width="33.333" height="33.333" fill="#49A126"/><rect x="66.667" y="33.268" width="33.333" height="33.333" fill="#49A126"/><rect x="33.333" y="66.732" width="33.333" height="33.333" fill="#49A126"/></svg></g><g transform="translate(396.25,&#10;                                396.25) rotate(270, 22.013968253968255, 22.013968253968255)"><svg xmlns="http://www.w3.org/2000/svg" id="Layer_1" data-name="Layer 1" viewBox="0 0 100 100" width="44.02793650793651" height="44.02793650793651"><polygon points="50 50 25 0 0 50 50 50" fill="#D51FF5"/><polygon points="50 100 25 50 0 100 50 100" fill="#D51FF5"/><polygon points="100 50 75 0 50 50 100 50" fill="#D51FF5"/><polygon points="100 100 75 50 50 100 100 100" fill="#D51FF5"/></svg></g><g transform="translate(440.28,&#10;                                396.25) rotate(180, 22.013968253968255, 22.013968253968255)"><svg xmlns="http://www.w3.org/2000/svg" id="Layer_1" data-name="Layer 1" viewBox="0 0 100 100" width="44.02793650793651" height="44.02793650793651"><polygon points="52.913 0 2.913 50 52.913 100 100 100 100 0 52.913 0" fill="#7415C9"/><polygon points="100 0 50 50 100 100 100 0" fill="#6256C1"/></svg></g><g transform="translate(396.25,&#10;                                440.28) rotate(270, 22.013968253968255, 22.013968253968255)"><svg xmlns="http://www.w3.org/2000/svg" id="Layer_1" data-name="Layer 1" viewBox="0 0 100 100" width="44.02793650793651" height="44.02793650793651"><path d="M100,100A100,100,0,0,0,0,0V100Z" fill="#F18701"/><path d="M50,100A50,50,0,0,0,0,50v50Z" fill="#6F674E"/></svg></g><g transform="translate(440.28,&#10;                                440.28) rotate(270, 22.013968253968255, 22.013968253968255)"><svg xmlns="http://www.w3.org/2000/svg" id="Layer_1" data-name="Layer 1" viewBox="0 0 100 100" width="44.02793650793651" height="44.02793650793651"><path d="M100,100A50,50,0,0,0,0,100Z" fill="#F7B801"/></svg></g><g transform="translate(484.31,&#10;                                440.28) rotate(270, 22.013968253968255, 22.013968253968255)"><svg xmlns="http://www.w3.org/2000/svg" id="Layer_1" data-name="Layer 1" viewBox="0 0 100 100" width="44.02793650793651" height="44.02793650793651"><polygon points="52.913 0 2.913 50 52.913 100 100 100 100 0 52.913 0" fill="#7415C9"/><polygon points="100 0 50 50 100 100 100 0" fill="#6256C1"/></svg></g><g transform="translate(396.25,&#10;                                484.31) rotate(270, 22.013968253968255, 22.013968253968255)"><svg xmlns="http://www.w3.org/2000/svg" id="Layer_1" data-name="Layer 1" viewBox="0 0 100 100" width="44.02793650793651" height="44.02793650793651"><polygon points="100 0 41.895 0 0 0 0 41.895 0 100 41.895 100 41.895 41.895 100 41.895 100 0" fill="#C4C720"/></svg></g><g transform="translate(440.28,&#10;                                484.31) rotate(270, 22.013968253968255, 22.013968253968255)"><svg xmlns="http://www.w3.org/2000/svg" id="Layer_1" data-name="Layer 1" viewBox="0 0 100 100" width="44.02793650793651" height="44.02793650793651"><path d="M50,100a50,50,0,1,1,50-50v50Z" fill="#636367"/></svg></g><g transform="translate(528.34,&#10;                                396.25) rotate(180, 22.013968253968255, 22.013968253968255)"><svg xmlns="http://www.w3.org/2000/svg" id="Layer_1" data-name="Layer 1" viewBox="0 0 100 100" width="44.02793650793651" height="44.02793650793651"><polygon points="100 0 41.895 0 0 0 0 41.895 0 100 41.895 100 41.895 41.895 100 41.895 100 0" fill="#C4C720"/></svg></g><g transform="translate(572.36,&#10;                                396.25) rotate(90, 22.013968253968255, 22.013968253968255)"><svg xmlns="http://www.w3.org/2000/svg" id="Layer_1" data-name="Layer 1" viewBox="0 0 100 100" width="44.02793650793651" height="44.02793650793651"><polygon points="52.913 0 2.913 50 52.913 100 100 100 100 0 52.913 0" fill="#7415C9"/><polygon points="100 0 50 50 100 100 100 0" fill="#6256C1"/></svg></g><g transform="translate(616.39,&#10;                                396.25) rotate(180, 22.013968253968255, 22.013968253968255)"><svg xmlns="http://www.w3.org/2000/svg" id="Layer_1" data-name="Layer 1" viewBox="0 0 100 100" width="44.02793650793651" height="44.02793650793651"><polygon points="50 50 25 0 0 50 50 50" fill="#D51FF5"/><polygon points="50 100 25 50 0 100 50 100" fill="#D51FF5"/><polygon points="100 50 75 0 50 50 100 50" fill="#D51FF5"/><polygon points="100 100 75 50 50 100 100 100" fill="#D51FF5"/></svg></g><g transform="translate(528.34,&#10;                                440.28) rotate(90, 22.013968253968255, 22.013968253968255)"><svg xmlns="http://www.w3.org/2000/svg" id="Layer_1" data-name="Layer 1" viewBox="0 0 100 100" width="44.02793650793651" height="44.02793650793651"><path d="M50,100a50,50,0,1,1,50-50v50Z" fill="#636367"/></svg></g><g transform="translate(572.36,&#10;                                440.28) rotate(270, 22.013968253968255, 22.013968253968255)"><svg xmlns="http://www.w3.org/2000/svg" id="Layer_1" data-name="Layer 1" viewBox="0 0 100 100" width="44.02793650793651" height="44.02793650793651"><path d="M100,100A50,50,0,0,0,0,100Z" fill="#577AFD"/></svg></g><g transform="translate(616.39,&#10;                                440.28) rotate(0, 22.013968253968255, 22.013968253968255)"><svg xmlns="http://www.w3.org/2000/svg" id="Layer_1" data-name="Layer 1" viewBox="0 0 100 100" width="44.02793650793651" height="44.02793650793651"><polygon points="50 50 25 0 0 50 50 50" fill="#D51FF5"/><polygon points="50 100 25 50 0 100 50 100" fill="#D51FF5"/><polygon points="100 50 75 0 50 50 100 50" fill="#D51FF5"/><polygon points="100 100 75 50 50 100 100 100" fill="#D51FF5"/></svg></g><g transform="translate(528.34,&#10;                                484.31) rotate(90, 22.013968253968255, 22.013968253968255)"><svg xmlns="http://www.w3.org/2000/svg" id="Layer_1" data-name="Layer 1" viewBox="0 0 100 100" width="44.02793650793651" height="44.02793650793651"><path d="M0,0V100H100V0ZM66.67,66.67H33.33V33.33H66.67Z" fill="#41EA22"/><rect x="33.333" y="-0.065" width="33.333" height="33.333" fill="#49A126"/><rect y="33.268" width="33.333" height="33.333" fill="#49A126"/><rect x="66.667" y="33.268" width="33.333" height="33.333" fill="#49A126"/><rect x="33.333" y="66.732" width="33.333" height="33.333" fill="#49A126"/></svg></g><g transform="translate(572.36,&#10;                                484.31) rotate(0, 22.013968253968255, 22.013968253968255)"><svg xmlns="http://www.w3.org/2000/svg" id="Layer_1" data-name="Layer 1" viewBox="0 0 100 100" width="44.02793650793651" height="44.02793650793651"><polygon points="52.913 0 2.913 50 52.913 100 100 100 100 0 52.913 0" fill="#7415C9"/><polygon points="100 0 50 50 100 100 100 0" fill="#6256C1"/></svg></g><g transform="translate(616.39,&#10;                                484.31) rotate(90, 22.013968253968255, 22.013968253968255)"><svg xmlns="http://www.w3.org/2000/svg" id="Layer_1" data-name="Layer 1" viewBox="0 0 100 100" width="44.02793650793651" height="44.02793650793651"><path d="M50,100a50,50,0,1,1,50-50v50Z" fill="#636367"/></svg></g><g transform="translate(660.42,&#10;                                396.25) rotate(0, 22.013968253968255, 22.013968253968255)"><svg xmlns="http://www.w3.org/2000/svg" id="Layer_1" data-name="Layer 1" viewBox="0 0 100 100" width="44.02793650793651" height="44.02793650793651"><polyline points="75 50 100 75 100 25" fill="#CC7A5C"/><polyline points="50 75 25 100 75 100" fill="#CC7A5C"/><polyline points="50 25 75 0 25 0" fill="#CC7A5C"/><polyline points="25 50 0 25 0 75" fill="#CC7A5C"/></svg></g><g transform="translate(704.45,&#10;                                396.25) rotate(270, 22.013968253968255, 22.013968253968255)"><svg xmlns="http://www.w3.org/2000/svg" id="Layer_1" data-name="Layer 1" viewBox="0 0 100 100" width="44.02793650793651" height="44.02793650793651"><polygon points="100 0 41.895 0 0 0 0 41.895 0 100 41.895 100 41.895 41.895 100 41.895 100 0" fill="#C4C720"/></svg></g><g transform="translate(748.47,&#10;                                396.25) rotate(180, 22.013968253968255, 22.013968253968255)"><svg xmlns="http://www.w3.org/2000/svg" id="Layer_1" data-name="Layer 1" viewBox="0 0 100 100" width="44.02793650793651" height="44.02793650793651"><polyline points="75 50 100 75 100 25" fill="#CC7A5C"/><polyline points="50 75 25 100 75 100" fill="#CC7A5C"/><polyline points="50 25 75 0 25 0" fill="#CC7A5C"/><polyline points="25 50 0 25 0 75" fill="#CC7A5C"/></svg></g><g transform="translate(660.42,&#10;                                440.28) rotate(90, 22.013968253968255, 22.013968253968255)"><svg xmlns="http://www.w3.org/2000/svg" id="Layer_1" data-name="Layer 1" viewBox="0 0 100 100" width="44.02793650793651" height="44.02793650793651"><path d="M100,100A50,50,0,0,0,0,100Z" fill="#577AFD"/></svg></g><g transform="translate(704.45,&#10;                                440.28) rotate(90, 22.013968253968255, 22.013968253968255)"><svg xmlns="http://www.w3.org/2000/svg" id="Layer_1" data-name="Layer 1" viewBox="0 0 100 100" width="44.02793650793651" height="44.02793650793651"><polygon points="100 0 41.895 0 0 0 0 41.895 0 100 41.895 100 41.895 41.895 100 41.895 100 0" fill="#C4C720"/></svg></g><g transform="translate(748.47,&#10;                                440.28) rotate(0, 22.013968253968255, 22.013968253968255)"><svg xmlns="http://www.w3.org/2000/svg" id="Layer_1" data-name="Layer 1" viewBox="0 0 100 100" width="44.02793650793651" height="44.02793650793651"><polygon points="50 50 25 0 0 50 50 50" fill="#D51FF5"/><polygon points="50 100 25 50 0 100 50 100" fill="#D51FF5"/><polygon points="100 50 75 0 50 50 100 50" fill="#D51FF5"/><polygon points="100 100 75 50 50 100 100 100" fill="#D51FF5"/></svg></g><g transform="translate(660.42,&#10;                                484.31) rotate(90, 22.013968253968255, 22.013968253968255)"><svg xmlns="http://www.w3.org/2000/svg" id="Layer_1" data-name="Layer 1" viewBox="0 0 100 100" width="44.02793650793651" height="44.02793650793651"><polygon points="100 0 41.895 0 0 0 0 41.895 0 100 41.895 100 41.895 41.895 100 41.895 100 0" fill="#C4C720"/></svg></g><g transform="translate(704.45,&#10;                                484.31) rotate(90, 22.013968253968255, 22.013968253968255)"><svg xmlns="http://www.w3.org/2000/svg" id="Layer_1" data-name="Layer 1" viewBox="0 0 100 100" width="44.02793650793651" height="44.02793650793651"><path d="M50,100a50,50,0,1,1,50-50v50Z" fill="#636367"/></svg></g><g transform="translate(748.47,&#10;                                484.31) rotate(90, 22.013968253968255, 22.013968253968255)"><svg xmlns="http://www.w3.org/2000/svg" id="Layer_1" data-name="Layer 1" viewBox="0 0 100 100" width="44.02793650793651" height="44.02793650793651"><path d="M50,100a50,50,0,1,1,50-50v50Z" fill="#636367"/></svg></g><g transform="translate(792.50,&#10;                                396.25) rotate(270, 22.013968253968255, 22.013968253968255)"><svg xmlns="http://www.w3.org/2000/svg" id="Layer_1" data-name="Layer 1" viewBox="0 0 100 100" width="44.02793650793651" height="44.02793650793651"><polyline points="75 50 100 75 100 25" fill="#CC7A5C"/><polyline points="50 75 25 100 75 100" fill="#CC7A5C"/><polyline points="50 25 75 0 25 0" fill="#CC7A5C"/><polyline points="25 50 0 25 0 75" fill="#CC7A5C"/></svg></g><g transform="translate(836.53,&#10;                                396.25) rotate(270, 22.013968253968255, 22.013968253968255)"><svg xmlns="http://www.w3.org/2000/svg" id="Layer_1" data-name="Layer 1" viewBox="0 0 100 100" width="44.02793650793651" height="44.02793650793651"><polygon points="100 0 41.895 0 0 0 0 41.895 0 100 41.895 100 41.895 41.895 100 41.895 100 0" fill="#C4C720"/></svg></g><g transform="translate(792.50,&#10;                                440.28) rotate(180, 22.013968253968255, 22.013968253968255)"><svg xmlns="http://www.w3.org/2000/svg" id="Layer_1" data-name="Layer 1" viewBox="0 0 100 100" width="44.02793650793651" height="44.02793650793651"><polygon points="100 0 41.895 0 0 0 0 41.895 0 100 41.895 100 41.895 41.895 100 41.895 100 0" fill="#C4C720"/></svg></g><g transform="translate(836.53,&#10;                                440.28) rotate(0, 22.013968253968255, 22.013968253968255)"><svg xmlns="http://www.w3.org/2000/svg" id="Layer_1" data-name="Layer 1" viewBox="0 0 100 100" width="44.02793650793651" height="44.02793650793651"><polygon points="52.913 0 2.913 50 52.913 100 100 100 100 0 52.913 0" fill="#7415C9"/><polygon points="100 0 50 50 100 100 100 0" fill="#6256C1"/></svg></g><g transform="translate(792.50,&#10;                                484.31) rotate(90, 22.013968253968255, 22.013968253968255)"><svg xmlns="http://www.w3.org/2000/svg" id="Layer_1" data-name="Layer 1" viewBox="0 0 100 100" width="44.02793650793651" height="44.02793650793651"><polygon points="100 0 41.895 0 0 0 0 41.895 0 100 41.895 100 41.895 41.895 100 41.895 100 0" fill="#C4C720"/></svg></g><g transform="translate(836.53,&#10;                                484.31) rotate(180, 22.013968253968255, 22.013968253968255)"><svg xmlns="http://www.w3.org/2000/svg" id="Layer_1" data-name="Layer 1" viewBox="0 0 100 100" width="44.02793650793651" height="44.02793650793651"><polygon points="52.913 0 2.913 50 52.913 100 100 100 100 0 52.913 0" fill="#7415C9"/><polygon points="100 0 50 50 100 100 100 0" fill="#6256C1"/></svg></g><g transform="translate(880.56,&#10;                                484.31) rotate(90, 22.013968253968255, 22.013968253968255)"><svg xmlns="http://www.w3.org/2000/svg" id="Layer_1" data-name="Layer 1" viewBox="0 0 100 100" width="44.02793650793651" height="44.02793650793651"><path d="M50,100a50,50,0,1,1,50-50v50Z" fill="#636367"/></svg></g></g></svg>