<svg class="border shadow-md" viewBox="0 0 520.08 520.08" xmlns="http://www.w3.org/2000/svg" preserveAspectRatio="none" style="width: 520.08px; height: 520.08px;"><rect class="bg" id="bg" x="0" y="0" width="520.08" height="520.08" fill="#ffffff"/><g><path d="M 0 -30.59294117647059V -18.355764705882354 H 30.59294117647059 V -24.47435294117647 H 61.18588235294118 V -24.47435294117647 H 91.77882352941177 V -42.83011764705883 H 122.37176470588236 V -36.71152941176471 H 152.96470588235294 V -12.237176470588235 H 183.55764705882353 V -12.237176470588235 H 214.15058823529412 V -18.355764705882354 H 244.7435294117647 V -24.47435294117647 H 275.33647058823533 V -12.237176470588235 H 305.9294117647059 V -12.237176470588235 H 336.52235294117645 V -30.59294117647059 H 367.11529411764707 V -12.237176470588235 H 397.7082352941177 V -30.59294117647059 H 428.30117647058825 V -12.237176470588235 H 458.8941176470588 V -30.59294117647059 H 489.4870588235294 V -24.47435294117647 H 520.08 V 521.08 H 0 V -30.59294117647059 Z" fill="#19781C"/></g><g><path d="M 0 0V 18.355764705882354 H 30.59294117647059 V 12.237176470588235 H 61.18588235294118 V 0 H 91.77882352941177 V -12.237176470588235 H 122.37176470588236 V 12.237176470588235 H 152.96470588235294 V 12.237176470588235 H 183.55764705882353 V 12.237176470588235 H 214.15058823529412 V 0 H 244.7435294117647 V 12.237176470588235 H 275.33647058823533 V 0 H 305.9294117647059 V -12.237176470588235 H 336.52235294117645 V 0 H 367.11529411764707 V 0 H 397.7082352941177 V 0 H 428.30117647058825 V 12.237176470588235 H 458.8941176470588 V 6.118588235294117 H 489.4870588235294 V 6.118588235294117 H 520.08 V 521.08 H 0 V 0 Z" fill="#197320"/></g><g><path d="M 0 30.59294117647059V 30.59294117647059 H 30.59294117647059 V 48.94870588235294 H 61.18588235294118 V 24.47435294117647 H 91.77882352941177 V 30.59294117647059 H 122.37176470588236 V 42.83011764705883 H 152.96470588235294 V 48.94870588235294 H 183.55764705882353 V 30.59294117647059 H 214.15058823529412 V 36.71152941176471 H 244.7435294117647 V 24.47435294117647 H 275.33647058823533 V 48.94870588235294 H 305.9294117647059 V 48.94870588235294 H 336.52235294117645 V 30.59294117647059 H 367.11529411764707 V 42.83011764705883 H 397.7082352941177 V 24.47435294117647 H 428.30117647058825 V 30.59294117647059 H 458.8941176470588 V 30.59294117647059 H 489.4870588235294 V 30.59294117647059 H 520.08 V 521.08 H 0 V 30.59294117647059 Z" fill="#196e24"/></g><g><path d="M 0 61.18588235294118V 42.83011764705883 H 30.59294117647059 V 79.54164705882353 H 61.18588235294118 V 79.54164705882353 H 91.77882352941177 V 61.18588235294118 H 122.37176470588236 V 79.54164705882353 H 152.96470588235294 V 73.42305882352942 H 183.55764705882353 V 79.54164705882353 H 214.15058823529412 V 73.42305882352942 H 244.7435294117647 V 73.42305882352942 H 275.33647058823533 V 73.42305882352942 H 305.9294117647059 V 61.18588235294118 H 336.52235294117645 V 79.54164705882353 H 367.11529411764707 V 73.42305882352942 H 397.7082352941177 V 67.30447058823529 H 428.30117647058825 V 61.18588235294118 H 458.8941176470588 V 73.42305882352942 H 489.4870588235294 V 67.30447058823529 H 520.08 V 521.08 H 0 V 61.18588235294118 Z" fill="#196928"/></g><g><path d="M 0 91.77882352941177V 97.89741176470588 H 30.59294117647059 V 91.77882352941177 H 61.18588235294118 V 91.77882352941177 H 91.77882352941177 V 91.77882352941177 H 122.37176470588236 V 73.42305882352942 H 152.96470588235294 V 91.77882352941177 H 183.55764705882353 V 104.016 H 214.15058823529412 V 91.77882352941177 H 244.7435294117647 V 85.66023529411765 H 275.33647058823533 V 97.89741176470588 H 305.9294117647059 V 110.13458823529412 H 336.52235294117645 V 104.016 H 367.11529411764707 V 73.42305882352942 H 397.7082352941177 V 104.016 H 428.30117647058825 V 85.66023529411765 H 458.8941176470588 V 73.42305882352942 H 489.4870588235294 V 110.13458823529412 H 520.08 V 521.08 H 0 V 91.77882352941177 Z" fill="#19642c"/></g><g><path d="M 0 122.37176470588236V 116.25317647058824 H 30.59294117647059 V 140.72752941176472 H 61.18588235294118 V 110.13458823529412 H 91.77882352941177 V 128.49035294117647 H 122.37176470588236 V 110.13458823529412 H 152.96470588235294 V 122.37176470588236 H 183.55764705882353 V 122.37176470588236 H 214.15058823529412 V 122.37176470588236 H 244.7435294117647 V 140.72752941176472 H 275.33647058823533 V 134.60894117647058 H 305.9294117647059 V 122.37176470588236 H 336.52235294117645 V 116.25317647058824 H 367.11529411764707 V 140.72752941176472 H 397.7082352941177 V 134.60894117647058 H 428.30117647058825 V 134.60894117647058 H 458.8941176470588 V 140.72752941176472 H 489.4870588235294 V 140.72752941176472 H 520.08 V 521.08 H 0 V 122.37176470588236 Z" fill="#195f30"/></g><g><path d="M 0 152.96470588235294V 159.08329411764706 H 30.59294117647059 V 165.20188235294117 H 61.18588235294118 V 159.08329411764706 H 91.77882352941177 V 171.3204705882353 H 122.37176470588236 V 152.96470588235294 H 152.96470588235294 V 171.3204705882353 H 183.55764705882353 V 146.84611764705883 H 214.15058823529412 V 171.3204705882353 H 244.7435294117647 V 159.08329411764706 H 275.33647058823533 V 152.96470588235294 H 305.9294117647059 V 152.96470588235294 H 336.52235294117645 V 140.72752941176472 H 367.11529411764707 V 171.3204705882353 H 397.7082352941177 V 165.20188235294117 H 428.30117647058825 V 134.60894117647058 H 458.8941176470588 V 171.3204705882353 H 489.4870588235294 V 171.3204705882353 H 520.08 V 521.08 H 0 V 152.96470588235294 Z" fill="#195a34"/></g><g><path d="M 0 183.55764705882353V 201.9134117647059 H 30.59294117647059 V 183.55764705882353 H 61.18588235294118 V 189.67623529411765 H 91.77882352941177 V 195.79482352941176 H 122.37176470588236 V 201.9134117647059 H 152.96470588235294 V 183.55764705882353 H 183.55764705882353 V 171.3204705882353 H 214.15058823529412 V 171.3204705882353 H 244.7435294117647 V 189.67623529411765 H 275.33647058823533 V 183.55764705882353 H 305.9294117647059 V 183.55764705882353 H 336.52235294117645 V 171.3204705882353 H 367.11529411764707 V 195.79482352941176 H 397.7082352941177 V 177.43905882352942 H 428.30117647058825 V 183.55764705882353 H 458.8941176470588 V 177.43905882352942 H 489.4870588235294 V 189.67623529411765 H 520.08 V 521.08 H 0 V 183.55764705882353 Z" fill="#195538"/></g><g><path d="M 0 214.15058823529412V 232.5063529411765 H 30.59294117647059 V 208.032 H 61.18588235294118 V 214.15058823529412 H 91.77882352941177 V 226.38776470588235 H 122.37176470588236 V 201.9134117647059 H 152.96470588235294 V 232.5063529411765 H 183.55764705882353 V 226.38776470588235 H 214.15058823529412 V 226.38776470588235 H 244.7435294117647 V 226.38776470588235 H 275.33647058823533 V 220.26917647058823 H 305.9294117647059 V 220.26917647058823 H 336.52235294117645 V 201.9134117647059 H 367.11529411764707 V 232.5063529411765 H 397.7082352941177 V 220.26917647058823 H 428.30117647058825 V 226.38776470588235 H 458.8941176470588 V 214.15058823529412 H 489.4870588235294 V 232.5063529411765 H 520.08 V 521.08 H 0 V 214.15058823529412 Z" fill="#19503c"/></g><g><path d="M 0 244.7435294117647V 226.38776470588235 H 30.59294117647059 V 263.09929411764705 H 61.18588235294118 V 263.09929411764705 H 91.77882352941177 V 256.98070588235294 H 122.37176470588236 V 226.38776470588235 H 152.96470588235294 V 250.86211764705882 H 183.55764705882353 V 244.7435294117647 H 214.15058823529412 V 250.86211764705882 H 244.7435294117647 V 250.86211764705882 H 275.33647058823533 V 244.7435294117647 H 305.9294117647059 V 244.7435294117647 H 336.52235294117645 V 250.86211764705882 H 367.11529411764707 V 244.7435294117647 H 397.7082352941177 V 244.7435294117647 H 428.30117647058825 V 256.98070588235294 H 458.8941176470588 V 263.09929411764705 H 489.4870588235294 V 238.6249411764706 H 520.08 V 521.08 H 0 V 244.7435294117647 Z" fill="#194b40"/></g><g><path d="M 0 275.33647058823533V 293.69223529411767 H 30.59294117647059 V 281.45505882352944 H 61.18588235294118 V 281.45505882352944 H 91.77882352941177 V 269.2178823529412 H 122.37176470588236 V 269.2178823529412 H 152.96470588235294 V 293.69223529411767 H 183.55764705882353 V 269.2178823529412 H 214.15058823529412 V 293.69223529411767 H 244.7435294117647 V 269.2178823529412 H 275.33647058823533 V 263.0992941176471 H 305.9294117647059 V 281.45505882352944 H 336.52235294117645 V 269.2178823529412 H 367.11529411764707 V 281.45505882352944 H 397.7082352941177 V 287.57364705882355 H 428.30117647058825 V 275.33647058823533 H 458.8941176470588 V 281.45505882352944 H 489.4870588235294 V 275.33647058823533 H 520.08 V 521.08 H 0 V 275.33647058823533 Z" fill="#194644"/></g><g><path d="M 0 305.9294117647059V 324.2851764705882 H 30.59294117647059 V 312.048 H 61.18588235294118 V 312.048 H 91.77882352941177 V 293.69223529411767 H 122.37176470588236 V 305.9294117647059 H 152.96470588235294 V 324.2851764705882 H 183.55764705882353 V 305.9294117647059 H 214.15058823529412 V 312.048 H 244.7435294117647 V 312.048 H 275.33647058823533 V 318.1665882352941 H 305.9294117647059 V 312.048 H 336.52235294117645 V 312.048 H 367.11529411764707 V 305.9294117647059 H 397.7082352941177 V 299.8108235294118 H 428.30117647058825 V 299.8108235294118 H 458.8941176470588 V 318.1665882352941 H 489.4870588235294 V 287.57364705882355 H 520.08 V 521.08 H 0 V 305.9294117647059 Z" fill="#194148"/></g><g><path d="M 0 336.52235294117645V 318.1665882352941 H 30.59294117647059 V 354.8781176470588 H 61.18588235294118 V 348.7595294117647 H 91.77882352941177 V 336.52235294117645 H 122.37176470588236 V 336.52235294117645 H 152.96470588235294 V 342.64094117647056 H 183.55764705882353 V 348.7595294117647 H 214.15058823529412 V 354.8781176470588 H 244.7435294117647 V 348.7595294117647 H 275.33647058823533 V 336.52235294117645 H 305.9294117647059 V 342.64094117647056 H 336.52235294117645 V 336.52235294117645 H 367.11529411764707 V 318.1665882352941 H 397.7082352941177 V 336.52235294117645 H 428.30117647058825 V 330.40376470588234 H 458.8941176470588 V 324.2851764705882 H 489.4870588235294 V 336.52235294117645 H 520.08 V 521.08 H 0 V 336.52235294117645 Z" fill="#193c4c"/></g><g><path d="M 0 367.11529411764707V 385.4710588235294 H 30.59294117647059 V 360.99670588235296 H 61.18588235294118 V 367.11529411764707 H 91.77882352941177 V 360.99670588235296 H 122.37176470588236 V 360.99670588235296 H 152.96470588235294 V 385.4710588235294 H 183.55764705882353 V 367.11529411764707 H 214.15058823529412 V 385.4710588235294 H 244.7435294117647 V 367.11529411764707 H 275.33647058823533 V 373.2338823529412 H 305.9294117647059 V 367.11529411764707 H 336.52235294117645 V 379.3524705882353 H 367.11529411764707 V 367.11529411764707 H 397.7082352941177 V 373.2338823529412 H 428.30117647058825 V 354.87811764705884 H 458.8941176470588 V 367.11529411764707 H 489.4870588235294 V 348.75952941176473 H 520.08 V 521.08 H 0 V 367.11529411764707 Z" fill="#193750"/></g><g><path d="M 0 397.7082352941177V 409.9454117647059 H 30.59294117647059 V 403.8268235294118 H 61.18588235294118 V 397.7082352941177 H 91.77882352941177 V 385.47105882352946 H 122.37176470588236 V 385.47105882352946 H 152.96470588235294 V 385.47105882352946 H 183.55764705882353 V 397.7082352941177 H 214.15058823529412 V 391.5896470588236 H 244.7435294117647 V 379.35247058823535 H 275.33647058823533 V 385.47105882352946 H 305.9294117647059 V 403.8268235294118 H 336.52235294117645 V 397.7082352941177 H 367.11529411764707 V 409.9454117647059 H 397.7082352941177 V 379.35247058823535 H 428.30117647058825 V 397.7082352941177 H 458.8941176470588 V 397.7082352941177 H 489.4870588235294 V 397.7082352941177 H 520.08 V 521.08 H 0 V 397.7082352941177 Z" fill="#193254"/></g><g><path d="M 0 428.30117647058825V 428.30117647058825 H 30.59294117647059 V 428.30117647058825 H 61.18588235294118 V 440.53835294117647 H 91.77882352941177 V 440.53835294117647 H 122.37176470588236 V 440.53835294117647 H 152.96470588235294 V 416.064 H 183.55764705882353 V 440.53835294117647 H 214.15058823529412 V 409.9454117647059 H 244.7435294117647 V 446.6569411764706 H 275.33647058823533 V 428.30117647058825 H 305.9294117647059 V 434.41976470588236 H 336.52235294117645 V 428.30117647058825 H 367.11529411764707 V 409.9454117647059 H 397.7082352941177 V 440.53835294117647 H 428.30117647058825 V 422.18258823529413 H 458.8941176470588 V 428.30117647058825 H 489.4870588235294 V 428.30117647058825 H 520.08 V 521.08 H 0 V 428.30117647058825 Z" fill="#192d58"/></g><g><path d="M 0 458.8941176470588V 446.6569411764706 H 30.59294117647059 V 477.24988235294114 H 61.18588235294118 V 471.13129411764703 H 91.77882352941177 V 465.0127058823529 H 122.37176470588236 V 458.8941176470588 H 152.96470588235294 V 477.24988235294114 H 183.55764705882353 V 446.6569411764706 H 214.15058823529412 V 440.53835294117647 H 244.7435294117647 V 471.13129411764703 H 275.33647058823533 V 452.7755294117647 H 305.9294117647059 V 471.13129411764703 H 336.52235294117645 V 458.8941176470588 H 367.11529411764707 V 471.13129411764703 H 397.7082352941177 V 477.24988235294114 H 428.30117647058825 V 446.6569411764706 H 458.8941176470588 V 477.24988235294114 H 489.4870588235294 V 477.24988235294114 H 520.08 V 521.08 H 0 V 458.8941176470588 Z" fill="#19285c"/></g><g><path d="M 0 489.4870588235294V 507.84282352941176 H 30.59294117647059 V 489.4870588235294 H 61.18588235294118 V 501.72423529411765 H 91.77882352941177 V 501.72423529411765 H 122.37176470588236 V 483.3684705882353 H 152.96470588235294 V 495.60564705882354 H 183.55764705882353 V 489.4870588235294 H 214.15058823529412 V 495.60564705882354 H 244.7435294117647 V 471.1312941176471 H 275.33647058823533 V 489.4870588235294 H 305.9294117647059 V 483.3684705882353 H 336.52235294117645 V 489.4870588235294 H 367.11529411764707 V 489.4870588235294 H 397.7082352941177 V 489.4870588235294 H 428.30117647058825 V 471.1312941176471 H 458.8941176470588 V 495.60564705882354 H 489.4870588235294 V 489.4870588235294 H 520.08 V 521.08 H 0 V 489.4870588235294 Z" fill="#192360"/></g></svg>